<svg width="700" height="416" viewBox="0 0 700 416" fill="none" xmlns="http://www.w3.org/2000/svg">
<rect width="700" height="416" fill="white"/>
<rect x="390.258" y="47.5" width="237.509" height="318.255" rx="1.5" stroke="#DBDBDC"/>
<rect x="71.5" y="37.5" width="237.509" height="317.012" rx="1.5" fill="url(#paint0_linear_3_1140)" stroke="#E5E7EB"/>
<rect x="409.5" y="196.5" width="197" height="124" rx="1.5" stroke="#DBDBDC"/>
<rect x="409.5" y="69.5" width="197.758" height="98.3789" rx="1.5" stroke="#DBDBDC"/>
<rect x="90.382" y="104.5" width="197.758" height="78.5031" rx="1.5" fill="white" stroke="#E5E7EB"/>
<path d="M111.5 258.5H270.5V304C270.5 304.828 269.828 305.5 269 305.5H113C112.172 305.5 111.5 304.828 111.5 304V258.5Z" fill="white" stroke="#666666"/>
<path d="M111 246C111 243.791 112.791 242 115 242H267C269.209 242 271 243.791 271 246V258H111V246Z" fill="#666666"/>
<circle cx="121" cy="250" r="4" fill="#FF5D52"/>
<circle cx="134" cy="250" r="4" fill="#FEBC2E"/>
<circle cx="147" cy="250" r="4" fill="#28C83F"/>
<rect x="409" y="34" width="47" height="31" fill="white"/>
<path fill-rule="evenodd" clip-rule="evenodd" d="M442.691 49.2514C443.269 49.3932 443.871 49.4626 444.472 49.4626C445.062 49.4626 445.606 49.3811 446.126 49.2167C446.624 49.0643 447.052 48.8516 447.41 48.559C447.769 48.2769 448.047 47.924 448.255 47.5242C448.451 47.126 448.555 46.6674 448.555 46.1621C448.555 45.5512 448.382 44.9991 448.023 44.5179C447.665 44.0367 447.064 43.6611 446.23 43.3911L444.588 42.8617C443.975 42.6626 443.547 42.4393 443.315 42.2161C443.083 41.9928 442.967 41.7107 442.967 41.3819C442.967 40.9007 443.153 40.5598 443.511 40.3366C443.871 40.1133 444.391 40.0077 445.05 40.0077C445.872 40.0077 446.612 40.1601 447.272 40.4663C447.468 40.5598 447.618 40.6066 447.711 40.6066C447.885 40.6066 447.977 40.4783 447.977 40.231V39.6789C447.977 39.5145 447.942 39.3847 447.873 39.2912C447.804 39.1856 447.688 39.0921 447.526 38.9986C447.41 38.9277 447.248 38.8568 447.04 38.7859C446.832 38.7165 446.612 38.6577 446.38 38.5988C446.138 38.5521 445.894 38.5053 445.628 38.4691C445.374 38.4344 445.108 38.4224 444.854 38.4224C444.345 38.4224 443.859 38.4812 443.396 38.6215C442.933 38.7633 442.541 38.9624 442.193 39.2324C441.847 39.4918 441.569 39.8207 441.361 40.1963C441.153 40.5719 441.048 41.0063 441.048 41.4996C441.048 42.1105 441.245 42.6852 441.627 43.2026C442.009 43.7305 442.633 44.1303 443.477 44.4003L445.154 44.9297C445.722 45.1168 446.114 45.3174 446.322 45.5406C446.532 45.7639 446.636 46.0339 446.636 46.3627C446.636 46.8439 446.426 47.2195 446.034 47.4775C445.64 47.7369 445.074 47.8651 444.345 47.8651C443.882 47.8651 443.431 47.8184 442.967 47.7248C442.517 47.6313 442.089 47.4895 441.695 47.313C441.655 47.2967 441.617 47.2804 441.58 47.2651C441.512 47.2364 441.452 47.2111 441.407 47.1954C441.337 47.1728 441.267 47.1607 441.199 47.1607C441.025 47.1607 440.933 47.2783 440.933 47.5242V48.1246C440.933 48.2302 440.955 48.3478 441.001 48.4534C441.048 48.559 441.175 48.6767 441.361 48.7823C441.661 48.9572 442.113 49.1111 442.691 49.2514ZM425.141 47.1381C425.06 46.8786 425.014 46.5272 425.014 46.0927H424.991V42.287C424.991 40.9942 424.667 40.0319 424.03 39.3968C423.384 38.7633 422.376 38.4465 421 38.4465C420.363 38.4465 419.763 38.5159 419.195 38.6698C418.629 38.81 418.143 38.9865 417.738 39.1977C417.576 39.2792 417.472 39.3621 417.414 39.4436C417.356 39.5265 417.333 39.6668 417.333 39.8554V40.4301C417.333 40.6775 417.414 40.7951 417.576 40.7951C417.622 40.7951 417.68 40.7831 417.761 40.7589C417.842 40.7363 417.981 40.6895 418.166 40.6066C418.571 40.4422 418.987 40.3139 419.415 40.2084C419.843 40.1013 420.259 40.0545 420.665 40.0545C421.555 40.0545 422.18 40.231 422.55 40.5945C422.908 40.9596 423.094 41.5825 423.094 42.474V43.3323C422.632 43.2267 422.192 43.1317 421.764 43.0729C421.335 43.014 420.931 42.9793 420.537 42.9793C419.345 42.9793 418.409 43.2856 417.703 43.895C416.998 44.5059 416.65 45.3174 416.65 46.3145C416.65 47.2542 416.94 48.0069 417.506 48.5696C418.073 49.1337 418.849 49.4158 419.819 49.4158C421.185 49.4158 422.319 48.8758 423.222 47.7958C423.348 48.0658 423.464 48.289 423.58 48.4881C423.696 48.6767 423.834 48.8637 423.996 49.0402C424.112 49.1458 424.228 49.2046 424.343 49.2046C424.436 49.2046 424.54 49.1699 424.644 49.099L425.373 48.6058C425.523 48.4881 425.593 48.3705 425.593 48.2528C425.593 48.1714 425.569 48.0763 425.512 47.9828C425.35 47.6781 425.234 47.396 425.141 47.1381ZM421.509 47.666C421.093 47.8063 420.699 47.8772 420.317 47.8772C419.785 47.8772 419.381 47.7369 419.103 47.4428C418.813 47.1607 418.675 46.7504 418.675 46.1983C418.675 45.61 418.861 45.1635 419.241 44.8468C419.623 44.53 420.191 44.3776 420.965 44.3776C421.324 44.3776 421.682 44.4003 422.053 44.447C422.424 44.4953 422.782 44.5647 423.118 44.6477V45.1409C423.118 45.5406 423.07 45.88 423.002 46.1621C422.932 46.4442 422.794 46.6916 422.608 46.9148C422.296 47.2663 421.926 47.5242 421.509 47.666ZM429.607 49.1458C429.398 49.1458 429.26 49.1111 429.167 49.0281C429.075 48.9572 428.994 48.7928 428.924 48.5696L426.205 39.4919C426.137 39.2565 426.101 39.1042 426.101 39.0212C426.101 38.8342 426.195 38.7271 426.379 38.7271H427.513C427.733 38.7271 427.883 38.7633 427.963 38.8447C428.057 38.9156 428.125 39.0801 428.195 39.3033L430.14 47.0793L431.944 39.3033C432.002 39.068 432.07 38.9156 432.164 38.8447C432.256 38.7754 432.418 38.7271 432.626 38.7271H433.551C433.771 38.7271 433.921 38.7633 434.015 38.8447C434.107 38.9156 434.187 39.0801 434.235 39.3033L436.061 47.1728L438.064 39.3033C438.132 39.068 438.214 38.9156 438.294 38.8447C438.388 38.7754 438.538 38.7271 438.746 38.7271H439.822C440.006 38.7271 440.111 38.8221 440.111 39.0212C440.111 39.067 440.103 39.1128 440.095 39.1643C440.093 39.1789 440.091 39.1941 440.088 39.2098C440.076 39.2792 440.053 39.3742 440.006 39.5024L437.219 48.5817C437.15 48.817 437.068 48.9693 436.976 49.0402C436.883 49.1111 436.733 49.1579 436.536 49.1579H435.541C435.321 49.1579 435.171 49.1217 435.079 49.0402C434.985 48.9572 434.905 48.8049 434.859 48.5696L433.066 40.9943L431.284 48.559C431.226 48.7928 431.156 48.9467 431.064 49.0281C430.972 49.1111 430.81 49.1458 430.602 49.1458H429.607Z" fill="#252F3E"/>
<path fill-rule="evenodd" clip-rule="evenodd" d="M446.658 55.1705C442.851 58.0259 437.322 59.5404 432.567 59.5404C425.905 59.5404 419.9 57.0379 415.366 52.8807C415.006 52.5519 415.33 52.1054 415.758 52.3633C420.664 55.2535 426.713 57.0032 432.973 57.0032C437.194 57.0032 441.833 56.1102 446.102 54.279C446.738 53.9849 447.282 54.7014 446.658 55.1705Z" fill="#FF9900"/>
<path fill-rule="evenodd" clip-rule="evenodd" d="M448.243 53.3392C447.757 52.7042 445.026 53.033 443.789 53.1869C443.419 53.2336 443.361 52.9048 443.696 52.6574C445.87 51.1068 449.445 51.5533 449.861 52.0706C450.279 52.5986 449.747 56.2279 447.711 57.9671C447.398 58.2371 447.097 58.0953 447.236 57.7439C447.699 56.5809 448.729 53.9607 448.243 53.3392Z" fill="#FF9900"/>
<rect x="90.3789" y="24" width="47.205" height="47.205" fill="white"/>
<path d="M116.027 29.7115C116.001 29.7378 115.975 29.7745 115.951 29.8007C115.693 30.0447 115.386 30.2362 115.054 30.3753C114.707 30.5169 114.35 30.5799 113.976 30.5799C113.605 30.5799 113.232 30.5169 112.885 30.3753C112.525 30.2336 112.204 30.0054 111.936 29.7351V31.8602H116.027V29.7115Z" fill="#A07DB8"/>
<path d="M112.872 30.3752C113.219 30.5169 113.59 30.5799 113.963 30.5799C114.334 30.5799 114.694 30.5169 115.041 30.3752C115.375 30.2336 115.67 30.0421 115.938 29.8007C115.964 29.7745 115.99 29.7377 116.014 29.7115C116.232 29.4806 116.398 29.2262 116.527 28.9428C116.682 28.6096 116.758 28.2633 116.758 27.9065C116.758 27.5471 116.682 27.2034 116.527 26.8834C116.385 26.5633 116.18 26.2695 115.938 26.0255C115.68 25.7815 115.386 25.59 115.052 25.4614C114.718 25.3066 114.347 25.2306 113.973 25.2437C113.229 25.2568 112.525 25.5375 111.999 26.036C111.741 26.28 111.549 26.5738 111.41 26.8939C111.268 27.2139 111.191 27.5733 111.204 27.917C111.204 28.2764 111.268 28.6332 111.41 28.9533C111.538 29.2471 111.717 29.5042 111.936 29.7351C112.193 30.0053 112.511 30.2231 112.872 30.3752Z" fill="#18184A"/>
<path d="M111.244 38.655C110.963 38.3743 110.602 38.1828 110.205 38.1041C109.808 38.0254 109.398 38.0647 109.025 38.2195C108.651 38.3743 108.333 38.6288 108.115 38.962C107.896 39.2952 107.768 39.6913 107.768 40.0875C107.768 40.6253 107.986 41.1369 108.357 41.5199C108.741 41.9029 109.253 42.1076 109.792 42.1076C110.189 42.1076 110.587 41.9921 110.92 41.7613C111.254 41.5435 111.51 41.2234 111.665 40.8535C111.82 40.4836 111.857 40.0717 111.78 39.6756C111.717 39.2952 111.525 38.9357 111.244 38.655Z" fill="#18184A"/>
<path d="M120.03 40.8693C120.185 40.4993 120.221 40.0875 120.145 39.6913C120.069 39.2952 119.877 38.9357 119.593 38.655C119.312 38.3743 118.951 38.1828 118.554 38.1041C118.157 38.0254 117.747 38.0647 117.374 38.2195C117.003 38.3743 116.682 38.6288 116.464 38.962C116.245 39.2952 116.117 39.6913 116.117 40.0875C116.117 40.6253 116.335 41.1369 116.706 41.5199C117.09 41.9029 117.602 42.1076 118.141 42.1076C118.539 42.1076 118.936 41.9921 119.27 41.7613C119.619 41.5592 119.874 41.2392 120.03 40.8693Z" fill="#18184A"/>
<path d="M106.881 49.9912H102.637V54.0235H106.881V50.0043V49.9912Z" fill="#EF539E"/>
<path fill-rule="evenodd" clip-rule="evenodd" d="M118.157 31.8602C122.709 31.8602 126.404 35.5462 126.404 40.0875C126.404 44.6314 122.696 48.3174 118.144 48.3043H118.105C118.257 48.5981 118.462 48.8657 118.72 49.0966C119.335 49.6712 120.182 49.9912 121.055 49.9912V54.0183C119.193 54.0183 117.4 53.3913 116.001 52.2789V54.5194H111.936V52.292C110.537 53.4044 108.741 54.0314 106.881 54.0314V50.0017C107.754 49.9912 108.601 49.6712 109.216 49.1071C109.472 48.8789 109.677 48.6086 109.832 48.3148H109.792C105.254 48.3148 101.559 44.6288 101.559 40.0875C101.559 35.5462 105.254 31.8602 109.806 31.8602H111.936H116.027H118.157ZM105.611 40.0875C105.611 42.391 107.484 44.2589 109.792 44.2589H118.141C120.45 44.2589 122.323 42.391 122.323 40.0875C122.323 37.7841 120.45 35.9161 118.141 35.9161H109.792C107.484 35.9161 105.611 37.7841 105.611 40.0875Z" fill="#18184A"/>
<path d="M121.068 50.0043V54.0235H125.312V49.9912H121.068V50.0043Z" fill="#58C9E9"/>
<path d="M111.936 56.4424V58.7826H116.014V56.4424V54.5089H111.936V56.4424Z" fill="#F78F2E"/>
<rect x="124.787" y="68.6662" width="1.21015" height="1.29653" fill="#F78F2E"/>
<path d="M119.297 67.7444V67.8899H120.515V65.8144C120.515 66.3831 120.288 66.9249 119.89 67.3266C119.716 67.5018 119.517 67.6419 119.297 67.7444Z" fill="#A07DB8"/>
<path d="M106.489 66.6635H105.226V67.8872H106.489V66.6635Z" fill="#EF539E"/>
<rect x="128.926" y="66.7955" width="1.20486" height="1.22645" fill="#58C9E9"/>
<path d="M101.473 63.2321V63.0865H100.255V65.162C100.255 64.5933 100.483 64.0515 100.88 63.6499C101.052 63.4774 101.256 63.3345 101.473 63.2321Z" fill="#A07DB8"/>
<path fill-rule="evenodd" clip-rule="evenodd" d="M123.555 63.0245C124.006 63.0245 124.424 63.1539 124.787 63.3696V63.0838H125.997V68.6581H124.787V67.6015C124.424 67.8225 124.006 67.9465 123.555 67.9465C122.223 67.9465 121.138 66.8414 121.138 65.4855C121.138 64.1297 122.223 63.0245 123.555 63.0245ZM122.332 65.4909C122.332 66.1756 122.88 66.7362 123.555 66.7362C124.231 66.7362 124.779 66.1756 124.779 65.4909C124.779 64.8062 124.228 64.2456 123.555 64.2456C122.883 64.2456 122.332 64.8036 122.332 65.4909Z" fill="#18184A"/>
<path d="M123.984 65.0542C123.9 64.968 123.791 64.9087 123.675 64.8844C123.555 64.8602 123.434 64.8736 123.325 64.9195C123.214 64.968 123.118 65.0434 123.055 65.1459C122.986 65.2456 122.954 65.3669 122.954 65.4855C122.954 65.6472 123.018 65.8063 123.129 65.9222C123.243 66.0381 123.397 66.1001 123.558 66.1001C123.677 66.1001 123.794 66.065 123.892 65.9976C123.99 65.9276 124.066 65.8332 124.114 65.7227C124.162 65.6095 124.172 65.4855 124.149 65.3669C124.127 65.2483 124.069 65.1378 123.984 65.0542Z" fill="#18184A"/>
<path d="M111.433 61.3398H110.199V63.0892V64.3211V65.8817C110.199 66.4505 110.429 66.9896 110.834 67.3939C111.239 67.7928 111.79 68.0193 112.367 68.0193V66.7928C112.121 66.7928 111.883 66.6958 111.711 66.5233C111.536 66.3508 111.438 66.1163 111.438 65.8764V64.3211H112.878V63.0892H111.438V61.3398H111.433V61.3398Z" fill="#18184A"/>
<path d="M114.719 63.0865H113.509V65.1971V67.8845H114.708H114.719V65.0596C114.748 64.8709 114.833 64.6903 114.973 64.5529C115.143 64.383 115.373 64.2887 115.611 64.2887V63.0865C115.301 63.0865 114.997 63.1566 114.719 63.286V63.0865V63.0865Z" fill="#18184A"/>
<path d="M119.297 65.8144V65.8144C119.297 66.0596 119.199 66.2942 119.03 66.464C118.858 66.6365 118.625 66.7335 118.381 66.7335C118.137 66.7335 117.904 66.6365 117.732 66.464C117.56 66.2915 117.465 66.0569 117.465 65.8144V63.0892H116.247V65.8144C116.247 66.3831 116.475 66.9249 116.872 67.3265C117.272 67.7282 117.814 67.9519 118.381 67.9519C118.702 67.9519 119.014 67.8791 119.297 67.7443C119.514 67.6419 119.716 67.499 119.888 67.3238C120.288 66.9222 120.513 66.3777 120.513 65.8117V63.0865H119.295L119.297 65.8144V65.8144Z" fill="#18184A"/>
<path d="M99.204 63.4909C99.0213 63.5663 98.8253 63.6068 98.6267 63.6041C98.4308 63.6041 98.2348 63.5663 98.0521 63.4909H98.0389H98.0283V67.8872H99.2384V63.4774L99.2173 63.4882L99.204 63.4909Z" fill="#18184A"/>
<path d="M99.2437 61.5097C99.1696 61.4342 99.0769 61.3749 98.9789 61.3371C98.8783 61.2913 98.7697 61.2671 98.6585 61.2671C98.4387 61.2698 98.2295 61.356 98.0707 61.507C97.9965 61.5824 97.9356 61.6687 97.8959 61.7657C97.8562 61.8655 97.8323 61.9679 97.8323 62.0757C97.8323 62.1862 97.8535 62.2913 97.8959 62.3911C97.9806 62.5878 98.1369 62.7415 98.3355 62.8251C98.4361 62.8655 98.5473 62.887 98.6612 62.887C98.775 62.887 98.881 62.8655 98.9816 62.8251C99.0796 62.7846 99.1722 62.7253 99.249 62.6525C99.3232 62.5771 99.3841 62.4908 99.4238 62.3938C99.4688 62.294 99.4927 62.1862 99.4927 62.0784C99.4927 61.9706 99.4688 61.8655 99.4238 61.7684C99.3841 61.6768 99.3232 61.5878 99.2437 61.5097Z" fill="#18184A"/>
<path d="M109.113 65.3319C108.97 65.2052 108.808 65.1054 108.628 65.0381C108.438 64.9653 108.239 64.9275 108.038 64.9302H106.764C106.724 64.9302 106.682 64.9221 106.645 64.906C106.608 64.8925 106.574 64.8682 106.547 64.8413C106.518 64.8116 106.497 64.7766 106.478 64.7389C106.462 64.7011 106.454 64.6607 106.454 64.6176C106.454 64.5394 106.489 64.4585 106.544 64.4019C106.603 64.3426 106.679 64.313 106.762 64.313H109.243V63.0865H106.762C106.356 63.0865 105.967 63.2482 105.676 63.5313C105.538 63.6714 105.424 63.8332 105.347 64.0165C105.191 64.3992 105.191 64.8278 105.347 65.2106C105.424 65.3939 105.538 65.5583 105.676 65.6984C105.814 65.8386 105.98 65.9491 106.16 66.0246C106.351 66.1082 106.552 66.1459 106.756 66.1459H108.03C108.104 66.1432 108.178 66.1567 108.247 66.1863C108.276 66.2025 108.3 66.2268 108.319 66.2591C108.334 66.2888 108.342 66.3238 108.334 66.3588C108.334 66.3966 108.324 66.437 108.308 66.4721C108.292 66.5071 108.268 66.5421 108.239 66.5691C108.213 66.5987 108.178 66.6203 108.141 66.6392C108.104 66.6553 108.064 66.6634 108.022 66.6634H106.483V67.8845H108.022C108.229 67.8872 108.432 67.8494 108.62 67.774C108.801 67.6958 108.965 67.5853 109.105 67.4478C109.243 67.3077 109.357 67.1405 109.433 66.9626C109.515 66.7739 109.555 66.5691 109.555 66.3642C109.558 66.1702 109.518 65.9788 109.444 65.8009C109.37 65.6257 109.253 65.4612 109.113 65.3319Z" fill="#18184A"/>
<path d="M128.269 66.5233C128.094 66.3508 127.996 66.1163 127.996 65.8764V64.3211H129.5V63.0892H127.996V61.3398H126.762V63.0892V64.3211V65.8817C126.762 66.4505 126.993 66.9896 127.398 67.3939C127.803 67.7928 128.354 68.0193 128.931 68.0193V66.7928C128.679 66.7901 128.441 66.6958 128.269 66.5233Z" fill="#18184A"/>
<path d="M102.39 63.0219C102.069 63.0219 101.757 63.0946 101.473 63.2294C101.256 63.3318 101.055 63.4747 100.883 63.6499C100.483 64.0515 100.258 64.596 100.258 65.1621V67.8872H101.476V65.1621C101.476 64.9168 101.574 64.6823 101.743 64.5125C101.916 64.3399 102.149 64.2429 102.392 64.2429C102.636 64.2429 102.869 64.3399 103.041 64.5125C103.213 64.685 103.308 64.9195 103.308 65.1621V67.8872H104.527V65.1621C104.527 64.5933 104.299 64.0515 103.902 63.6499C103.499 63.2483 102.956 63.0245 102.39 63.0219Z" fill="#18184A"/>
<g clip-path="url(#clip0_3_1140)">
<path fill-rule="evenodd" clip-rule="evenodd" d="M134.354 264H169.137V298.783H134.354V264Z" fill="url(#paint1_linear_3_1140)"/>
<path fill-rule="evenodd" clip-rule="evenodd" d="M139.571 270.087V293.565H154.354V292.696H140.441V274.435H163.05V292.696H160.441V293.565H163.919V270.087H139.571ZM140.441 273.565H163.05V270.957H140.441V273.565ZM145.658 272.696H146.528V271.826H145.658V272.696ZM143.919 272.696H144.789V271.826H143.919V272.696ZM142.18 272.696H143.05V271.826H142.18V272.696ZM143.612 279.96L147.652 284L143.612 288.041L144.226 288.655L148.882 284L144.226 279.344L143.612 279.96ZM150.876 286.609H158.702V285.739H150.876V286.609Z" fill="white"/>
</g>
<path fill-rule="evenodd" clip-rule="evenodd" d="M221.151 269.911L230.414 275.202V285.792L221.151 280.498V269.911Z" fill="#7B42BC"/>
<path fill-rule="evenodd" clip-rule="evenodd" d="M231.429 275.202V285.792L240.689 280.498V269.911L231.429 275.202Z" fill="#7B42BC"/>
<path fill-rule="evenodd" clip-rule="evenodd" d="M210.876 264V274.587L220.136 279.883V269.296L210.876 264Z" fill="#7B42BC"/>
<path fill-rule="evenodd" clip-rule="evenodd" d="M221.151 292.246L230.411 297.54V287.022V286.953L221.151 281.657V292.246Z" fill="#7B42BC"/>
<rect x="165.205" y="120" width="47.205" height="47.205" fill="white"/>
<path fill-rule="evenodd" clip-rule="evenodd" d="M184.176 133.364L193.439 138.656V149.246L184.176 143.951V133.364Z" fill="#7B42BC"/>
<path fill-rule="evenodd" clip-rule="evenodd" d="M194.454 138.656V149.246L203.714 143.951V133.364L194.454 138.656Z" fill="#7B42BC"/>
<path fill-rule="evenodd" clip-rule="evenodd" d="M173.901 127.453V138.041L183.161 143.337V132.749L173.901 127.453Z" fill="#7B42BC"/>
<path fill-rule="evenodd" clip-rule="evenodd" d="M184.176 155.699L193.436 160.994V150.476V150.407L184.176 145.111V155.699Z" fill="#7B42BC"/>
<rect x="118" y="120" width="47.205" height="47.205" fill="white"/>
<path d="M139.122 127.453L126.696 134.505V134.511V151.446L131.363 154.098V137.156L139.122 132.751V127.453Z" fill="black"/>
<path d="M144.083 127.453V140.945H139.122V135.911L134.452 138.563V155.846L139.122 158.503V145.05H144.083V150.052L148.75 147.4V130.105L144.083 127.453Z" fill="black"/>
<path d="M144.083 158.509L156.509 151.458V151.452V134.516L151.839 131.865V148.807L144.083 153.212V158.509Z" fill="black"/>
<path fill-rule="evenodd" clip-rule="evenodd" d="M256.964 152.379C256.809 152.39 256.653 152.401 256.505 152.416C255.986 152.459 255.444 152.511 254.895 152.568L254.728 152.586C252.974 152.767 250.989 152.971 250.043 152.842C249.453 152.757 248.366 152.285 247.213 151.785C245.259 150.939 242.827 149.883 240.627 149.714C237.6 149.482 232.37 150.052 228.997 151.633C227.047 151.546 225.238 151.021 223.833 150.155C223.827 149.884 223.821 149.614 223.821 149.51C223.821 145.399 225.747 141.544 229.108 138.926C231.391 137.591 234.022 136.886 236.721 136.886C242.804 136.886 248.202 140.481 250.308 145.773H249.5C248.691 145.773 248.013 146.345 247.847 147.105C247.71 147.053 247.585 147.006 247.438 146.95C245.421 146.171 242.655 145.107 239.457 145.297C234.781 145.571 232.48 145.853 230.669 146.37L231.214 148.282C232.872 147.808 235.058 147.547 239.573 147.28C242.34 147.123 244.877 148.093 246.722 148.804C247.115 148.956 247.47 149.088 247.806 149.208V149.412C247.806 150.345 248.567 151.106 249.5 151.106H253.124C254.055 151.106 254.815 150.348 254.818 149.418L255.169 149.386C255.759 149.334 256.3 149.281 256.754 149.236L256.964 149.215V152.379ZM222.893 154.036C220.26 154.397 218.181 154.075 217.32 153.543C217.842 153.175 219.019 152.659 219.848 152.297C220.566 151.984 221.292 151.653 221.995 151.299C223.142 152.173 224.562 152.828 226.134 153.218C225.225 153.584 224.099 153.872 222.893 154.036V154.036ZM249.794 149.118H252.83V147.76H249.794V149.118ZM239.576 132.919C247.892 132.919 254.876 139.175 255.905 147.321C255.619 147.349 255.316 147.378 254.997 147.407L254.814 147.423C254.79 146.51 254.043 145.773 253.124 145.773H252.418C250.23 139.336 243.895 134.899 236.721 134.899C234.063 134.899 231.464 135.507 229.127 136.663C229.144 136.649 229.158 136.634 229.173 136.621C232.096 134.234 235.79 132.919 239.576 132.919V132.919ZM258.399 147.621C258.255 147.491 258.085 147.397 257.904 147.325C256.865 138.072 248.981 130.932 239.576 130.932C235.333 130.932 231.192 132.405 227.917 135.081C223.591 138.603 221.11 143.821 221.11 149.397C221.11 149.438 221.113 149.479 221.113 149.519C220.45 149.852 219.75 150.17 219.053 150.476C216.93 151.404 215.397 152.074 215.168 153.284C215.111 153.591 215.101 154.192 215.685 154.777C216.716 155.807 218.693 156.177 220.703 156.177C221.54 156.177 222.38 156.113 223.161 156.006C224.492 155.825 226.977 155.337 228.663 154.103C231.324 152.174 237.342 151.452 240.475 151.696C242.343 151.84 244.604 152.821 246.423 153.609C247.81 154.212 248.908 154.687 249.768 154.809C250.952 154.971 252.885 154.773 254.931 154.563L255.103 154.546C255.637 154.488 256.164 154.439 256.685 154.396C256.899 154.375 257.11 154.36 257.392 154.34C258.267 154.279 258.952 153.545 258.952 152.671V148.866C258.952 148.391 258.751 147.937 258.399 147.621V147.621Z" fill="#BF0816"/>
<path d="M301.295 106L300.795 106.005L300.805 107.005L301.305 107L301.295 106ZM398.3 105.5L393.271 102.665L393.33 108.438L398.3 105.5ZM301.305 107L393.805 106.046L393.795 105.046L301.295 106L301.305 107Z" fill="#666666"/>
<path d="M487.484 257.245H486.984V258.245H487.484V257.245ZM533.696 257.745L528.696 254.859V260.632L533.696 257.745ZM489.41 258.245H489.91V257.245H489.41V258.245ZM493.261 257.245H492.761V258.245H493.261V257.245ZM497.112 258.245H497.612V257.245H497.112V258.245ZM500.963 257.245H500.463V258.245H500.963V257.245ZM504.814 258.245H505.314V257.245H504.814V258.245ZM508.665 257.245H508.165V258.245H508.665V257.245ZM512.515 258.245H513.015V257.245H512.515V258.245ZM516.366 257.245H515.866V258.245H516.366V257.245ZM520.217 258.245H520.717V257.245H520.217V258.245ZM524.068 257.245H523.568V258.245H524.068V257.245ZM527.919 258.245H528.419V257.245H527.919V258.245ZM531.77 257.245H531.27V258.245H531.77V257.245ZM487.484 258.245H489.41V257.245H487.484V258.245ZM493.261 258.245H497.112V257.245H493.261V258.245ZM500.963 258.245H504.814V257.245H500.963V258.245ZM508.665 258.245H512.515V257.245H508.665V258.245ZM516.366 258.245H520.217V257.245H516.366V258.245ZM524.068 258.245H527.919V257.245H524.068V258.245Z" fill="#979797"/>
<path fill-rule="evenodd" clip-rule="evenodd" d="M479.809 119.379C479.654 119.39 479.498 119.401 479.35 119.416C478.831 119.459 478.288 119.511 477.74 119.568L477.573 119.586C475.819 119.767 473.833 119.971 472.888 119.842C472.298 119.757 471.211 119.285 470.058 118.785C468.104 117.939 465.671 116.883 463.472 116.714C460.445 116.482 455.215 117.052 451.842 118.633C449.892 118.546 448.083 118.021 446.678 117.155C446.672 116.884 446.666 116.614 446.666 116.51C446.666 112.399 448.592 108.544 451.953 105.926C454.236 104.591 456.866 103.886 459.565 103.886C465.648 103.886 471.047 107.481 473.152 112.773H472.345C471.536 112.773 470.858 113.345 470.692 114.105C470.555 114.053 470.43 114.006 470.282 113.95C468.266 113.171 465.499 112.107 462.301 112.297C457.626 112.571 455.325 112.853 453.513 113.37L454.059 115.282C455.716 114.808 457.903 114.547 462.418 114.28C465.184 114.123 467.721 115.093 469.567 115.804C469.959 115.956 470.314 116.088 470.651 116.208V116.412C470.651 117.345 471.411 118.106 472.345 118.106H475.969C476.9 118.106 477.659 117.348 477.662 116.418L478.014 116.386C478.603 116.334 479.145 116.281 479.599 116.236L479.809 116.215V119.379ZM445.738 121.036C443.104 121.397 441.025 121.075 440.165 120.543C440.686 120.175 441.864 119.659 442.693 119.297C443.41 118.984 444.137 118.653 444.839 118.299C445.986 119.173 447.406 119.828 448.979 120.218C448.069 120.584 446.943 120.872 445.738 121.036V121.036ZM472.639 116.118H475.675V114.76H472.639V116.118ZM462.421 99.9192C470.737 99.9192 477.721 106.175 478.75 114.321C478.463 114.349 478.161 114.378 477.842 114.407L477.658 114.423C477.634 113.51 476.888 112.773 475.969 112.773H475.262C473.075 106.336 466.74 101.899 459.565 101.899C456.908 101.899 454.308 102.507 451.972 103.663C451.989 103.649 452.003 103.634 452.018 103.621C454.94 101.234 458.634 99.9192 462.421 99.9192V99.9192ZM481.244 114.621C481.1 114.491 480.93 114.397 480.749 114.325C479.71 105.072 471.826 97.9317 462.421 97.9317C458.178 97.9317 454.037 99.4055 450.761 102.081C446.435 105.603 443.955 110.821 443.955 116.397C443.955 116.438 443.958 116.479 443.958 116.519C443.295 116.852 442.594 117.17 441.898 117.476C439.775 118.404 438.242 119.074 438.013 120.284C437.955 120.591 437.946 121.192 438.53 121.777C439.56 122.807 441.538 123.177 443.548 123.177C444.384 123.177 445.225 123.113 446.006 123.006C447.337 122.825 449.821 122.337 451.508 121.103C454.169 119.174 460.187 118.452 463.32 118.696C465.187 118.84 467.449 119.821 469.268 120.609C470.655 121.212 471.752 121.687 472.613 121.809C473.796 121.971 475.729 121.773 477.776 121.563L477.948 121.546C478.482 121.488 479.009 121.439 479.53 121.396C479.743 121.375 479.955 121.36 480.237 121.34C481.112 121.279 481.796 120.545 481.796 119.671V115.866C481.796 115.391 481.596 114.937 481.244 114.621V114.621Z" fill="#BF0816"/>
<path d="M507.491 88V132.72" stroke="#343536" stroke-linecap="square" stroke-dasharray="2"/>
<path d="M450.628 146V139.558H453.366C454.054 139.558 454.554 139.616 454.864 139.733C455.178 139.848 455.428 140.053 455.616 140.349C455.803 140.645 455.897 140.983 455.897 141.364C455.897 141.847 455.755 142.247 455.471 142.563C455.186 142.877 454.762 143.075 454.196 143.157C454.477 143.321 454.709 143.501 454.89 143.697C455.075 143.894 455.323 144.242 455.633 144.743L456.42 146H454.864L453.924 144.598C453.59 144.097 453.361 143.782 453.238 143.653C453.115 143.521 452.985 143.432 452.847 143.385C452.709 143.335 452.491 143.311 452.192 143.311H451.929V146H450.628ZM451.929 142.282H452.891C453.515 142.282 453.905 142.256 454.06 142.203C454.215 142.15 454.337 142.06 454.425 141.931C454.513 141.802 454.557 141.641 454.557 141.447C454.557 141.23 454.498 141.056 454.381 140.924C454.266 140.79 454.104 140.705 453.893 140.669C453.787 140.655 453.471 140.647 452.944 140.647H451.929V142.282ZM456.815 143.601C456.815 143.19 456.916 142.793 457.118 142.41C457.32 142.026 457.606 141.733 457.975 141.531C458.347 141.329 458.762 141.228 459.219 141.228C459.925 141.228 460.503 141.458 460.955 141.917C461.406 142.375 461.631 142.953 461.631 143.653C461.631 144.359 461.403 144.945 460.946 145.411C460.492 145.874 459.919 146.105 459.227 146.105C458.8 146.105 458.391 146.009 458.001 145.815C457.615 145.622 457.32 145.339 457.118 144.967C456.916 144.592 456.815 144.137 456.815 143.601ZM458.08 143.667C458.08 144.129 458.19 144.484 458.41 144.73C458.63 144.976 458.901 145.099 459.223 145.099C459.545 145.099 459.815 144.976 460.032 144.73C460.251 144.484 460.361 144.126 460.361 143.658C460.361 143.201 460.251 142.849 460.032 142.603C459.815 142.357 459.545 142.234 459.223 142.234C458.901 142.234 458.63 142.357 458.41 142.603C458.19 142.849 458.08 143.204 458.08 143.667ZM462.584 146V139.558H463.819V146H462.584ZM467.774 144.515L469.004 144.721C468.846 145.172 468.596 145.517 468.253 145.754C467.913 145.988 467.487 146.105 466.974 146.105C466.163 146.105 465.562 145.84 465.172 145.31C464.865 144.885 464.711 144.349 464.711 143.702C464.711 142.928 464.913 142.323 465.317 141.887C465.722 141.447 466.233 141.228 466.851 141.228C467.545 141.228 468.093 141.458 468.495 141.917C468.896 142.375 469.088 143.076 469.07 144.022H465.977C465.985 144.389 466.085 144.674 466.275 144.879C466.466 145.082 466.703 145.183 466.987 145.183C467.181 145.183 467.343 145.13 467.475 145.024C467.607 144.919 467.707 144.749 467.774 144.515ZM467.844 143.267C467.836 142.909 467.743 142.638 467.567 142.454C467.392 142.266 467.178 142.172 466.926 142.172C466.656 142.172 466.434 142.271 466.258 142.467C466.082 142.663 465.996 142.93 465.999 143.267H467.844Z" fill="#1D1F25"/>
<path d="M542.538 146V139.558H544.626C545.417 139.558 545.932 139.59 546.173 139.654C546.542 139.751 546.851 139.962 547.1 140.287C547.349 140.609 547.473 141.027 547.473 141.54C547.473 141.935 547.402 142.268 547.258 142.537C547.114 142.807 546.931 143.019 546.709 143.174C546.489 143.327 546.265 143.428 546.036 143.478C545.726 143.539 545.276 143.57 544.687 143.57H543.839V146H542.538ZM543.839 140.647V142.476H544.551C545.064 142.476 545.406 142.442 545.579 142.375C545.752 142.307 545.887 142.202 545.984 142.058C546.083 141.915 546.133 141.748 546.133 141.557C546.133 141.323 546.064 141.129 545.926 140.977C545.789 140.825 545.614 140.729 545.404 140.691C545.248 140.662 544.936 140.647 544.468 140.647H543.839ZM548.229 143.601C548.229 143.19 548.33 142.793 548.532 142.41C548.734 142.026 549.02 141.733 549.389 141.531C549.761 141.329 550.176 141.228 550.633 141.228C551.339 141.228 551.917 141.458 552.368 141.917C552.82 142.375 553.045 142.953 553.045 143.653C553.045 144.359 552.817 144.945 552.36 145.411C551.906 145.874 551.333 146.105 550.641 146.105C550.214 146.105 549.805 146.009 549.415 145.815C549.029 145.622 548.734 145.339 548.532 144.967C548.33 144.592 548.229 144.137 548.229 143.601ZM549.494 143.667C549.494 144.129 549.604 144.484 549.824 144.73C550.044 144.976 550.315 145.099 550.637 145.099C550.959 145.099 551.229 144.976 551.446 144.73C551.665 144.484 551.775 144.126 551.775 143.658C551.775 143.201 551.665 142.849 551.446 142.603C551.229 142.357 550.959 142.234 550.637 142.234C550.315 142.234 550.044 142.357 549.824 142.603C549.604 142.849 549.494 143.204 549.494 143.667ZM553.998 146V139.558H555.233V146H553.998ZM556.485 140.7V139.558H557.72V140.7H556.485ZM556.485 146V141.333H557.72V146H556.485ZM563.042 142.713L561.824 142.933C561.783 142.689 561.689 142.506 561.543 142.383C561.399 142.26 561.212 142.199 560.98 142.199C560.673 142.199 560.427 142.306 560.242 142.52C560.061 142.73 559.97 143.085 559.97 143.583C559.97 144.137 560.062 144.528 560.247 144.756C560.434 144.985 560.685 145.099 560.998 145.099C561.232 145.099 561.424 145.033 561.574 144.901C561.723 144.767 561.829 144.537 561.89 144.211L563.103 144.418C562.977 144.975 562.735 145.395 562.378 145.679C562.021 145.963 561.542 146.105 560.941 146.105C560.258 146.105 559.713 145.89 559.306 145.459C558.902 145.029 558.7 144.433 558.7 143.671C558.7 142.9 558.903 142.301 559.311 141.874C559.718 141.443 560.269 141.228 560.963 141.228C561.531 141.228 561.982 141.351 562.316 141.597C562.653 141.84 562.895 142.212 563.042 142.713ZM563.379 141.333H564.693L565.81 144.646L566.899 141.333H568.178L566.53 145.824L566.236 146.637C566.128 146.91 566.024 147.118 565.924 147.261C565.827 147.405 565.714 147.521 565.586 147.608C565.46 147.699 565.303 147.77 565.115 147.819C564.931 147.869 564.721 147.894 564.487 147.894C564.25 147.894 564.017 147.869 563.788 147.819L563.678 146.853C563.872 146.891 564.046 146.91 564.201 146.91C564.488 146.91 564.701 146.825 564.838 146.655C564.976 146.488 565.082 146.274 565.155 146.013L563.379 141.333Z" fill="#1D1F25"/>
<path d="M331.96 78H330.544L329.982 76.5366H327.407L326.875 78H325.495L328.004 71.5576H329.38L331.96 78ZM329.564 75.4512L328.677 73.0605L327.807 75.4512H329.564ZM336.596 74.7129L335.379 74.9326C335.338 74.6895 335.244 74.5063 335.098 74.3833C334.954 74.2603 334.767 74.1987 334.535 74.1987C334.228 74.1987 333.982 74.3057 333.797 74.5195C333.615 74.7305 333.525 75.085 333.525 75.583C333.525 76.1367 333.617 76.5278 333.801 76.7563C333.989 76.9849 334.239 77.0991 334.553 77.0991C334.787 77.0991 334.979 77.0332 335.129 76.9014C335.278 76.7666 335.384 76.5366 335.445 76.2114L336.658 76.418C336.532 76.9746 336.29 77.395 335.933 77.6792C335.575 77.9634 335.096 78.1055 334.496 78.1055C333.813 78.1055 333.268 77.8901 332.861 77.4595C332.457 77.0288 332.255 76.4326 332.255 75.6709C332.255 74.9004 332.458 74.3013 332.865 73.8735C333.273 73.4429 333.823 73.2275 334.518 73.2275C335.086 73.2275 335.537 73.3506 335.871 73.5967C336.208 73.8398 336.45 74.2119 336.596 74.7129ZM341.488 74.7129L340.271 74.9326C340.23 74.6895 340.136 74.5063 339.99 74.3833C339.846 74.2603 339.659 74.1987 339.427 74.1987C339.12 74.1987 338.873 74.3057 338.689 74.5195C338.507 74.7305 338.416 75.085 338.416 75.583C338.416 76.1367 338.509 76.5278 338.693 76.7563C338.881 76.9849 339.131 77.0991 339.445 77.0991C339.679 77.0991 339.871 77.0332 340.02 76.9014C340.17 76.7666 340.275 76.5366 340.337 76.2114L341.55 76.418C341.424 76.9746 341.182 77.395 340.825 77.6792C340.467 77.9634 339.988 78.1055 339.388 78.1055C338.705 78.1055 338.16 77.8901 337.753 77.4595C337.349 77.0288 337.146 76.4326 337.146 75.6709C337.146 74.9004 337.35 74.3013 337.757 73.8735C338.164 73.4429 338.715 73.2275 339.41 73.2275C339.978 73.2275 340.429 73.3506 340.763 73.5967C341.1 73.8398 341.342 74.2119 341.488 74.7129ZM345.013 76.5146L346.244 76.7212C346.085 77.1724 345.835 77.5166 345.492 77.7539C345.152 77.9883 344.726 78.1055 344.213 78.1055C343.402 78.1055 342.801 77.8403 342.412 77.3101C342.104 76.8853 341.95 76.3491 341.95 75.7017C341.95 74.9282 342.152 74.3232 342.557 73.8867C342.961 73.4473 343.472 73.2275 344.09 73.2275C344.785 73.2275 345.333 73.4575 345.734 73.9175C346.135 74.3745 346.327 75.0762 346.31 76.0225H343.216C343.225 76.3887 343.324 76.6743 343.515 76.8794C343.705 77.0815 343.942 77.1826 344.227 77.1826C344.42 77.1826 344.583 77.1299 344.714 77.0244C344.846 76.9189 344.946 76.749 345.013 76.5146ZM345.084 75.2666C345.075 74.9092 344.982 74.6382 344.807 74.4536C344.631 74.2661 344.417 74.1724 344.165 74.1724C343.896 74.1724 343.673 74.2705 343.497 74.4668C343.321 74.6631 343.235 74.9297 343.238 75.2666H345.084ZM346.767 76.6685L348.007 76.4795C348.059 76.7197 348.166 76.9028 348.327 77.0288C348.488 77.1519 348.714 77.2134 349.004 77.2134C349.323 77.2134 349.564 77.1548 349.725 77.0376C349.833 76.9556 349.887 76.8457 349.887 76.708C349.887 76.6143 349.858 76.5366 349.8 76.4751C349.738 76.4165 349.6 76.3623 349.386 76.3125C348.39 76.0928 347.759 75.8921 347.492 75.7104C347.123 75.4585 346.939 75.1084 346.939 74.6602C346.939 74.2559 347.098 73.916 347.418 73.6406C347.737 73.3652 348.232 73.2275 348.903 73.2275C349.542 73.2275 350.016 73.3315 350.327 73.5396C350.637 73.7476 350.851 74.0552 350.968 74.4624L349.804 74.6777C349.754 74.4961 349.659 74.3569 349.518 74.2603C349.381 74.1636 349.183 74.1152 348.925 74.1152C348.6 74.1152 348.367 74.1606 348.226 74.2515C348.133 74.3159 348.086 74.3994 348.086 74.502C348.086 74.5898 348.127 74.6646 348.209 74.7261C348.32 74.8081 348.704 74.9238 349.36 75.0732C350.019 75.2227 350.479 75.4058 350.74 75.6226C350.998 75.8423 351.127 76.1484 351.127 76.541C351.127 76.9688 350.948 77.3364 350.591 77.644C350.233 77.9517 349.704 78.1055 349.004 78.1055C348.368 78.1055 347.864 77.9766 347.492 77.7188C347.123 77.4609 346.882 77.1108 346.767 76.6685ZM351.659 76.6685L352.898 76.4795C352.951 76.7197 353.058 76.9028 353.219 77.0288C353.38 77.1519 353.606 77.2134 353.896 77.2134C354.215 77.2134 354.455 77.1548 354.617 77.0376C354.725 76.9556 354.779 76.8457 354.779 76.708C354.779 76.6143 354.75 76.5366 354.691 76.4751C354.63 76.4165 354.492 76.3623 354.278 76.3125C353.282 76.0928 352.651 75.8921 352.384 75.7104C352.015 75.4585 351.83 75.1084 351.83 74.6602C351.83 74.2559 351.99 73.916 352.309 73.6406C352.629 73.3652 353.124 73.2275 353.795 73.2275C354.433 73.2275 354.908 73.3315 355.219 73.5396C355.529 73.7476 355.743 74.0552 355.86 74.4624L354.696 74.6777C354.646 74.4961 354.551 74.3569 354.41 74.2603C354.272 74.1636 354.075 74.1152 353.817 74.1152C353.492 74.1152 353.259 74.1606 353.118 74.2515C353.024 74.3159 352.977 74.3994 352.977 74.502C352.977 74.5898 353.018 74.6646 353.1 74.7261C353.212 74.8081 353.596 74.9238 354.252 75.0732C354.911 75.2227 355.371 75.4058 355.632 75.6226C355.89 75.8423 356.018 76.1484 356.018 76.541C356.018 76.9688 355.84 77.3364 355.482 77.644C355.125 77.9517 354.596 78.1055 353.896 78.1055C353.26 78.1055 352.756 77.9766 352.384 77.7188C352.015 77.4609 351.773 77.1108 351.659 76.6685ZM359.399 78V71.5576H360.7V74.4185L363.328 71.5576H365.077L362.651 74.0669L365.209 78H363.526L361.755 74.9766L360.7 76.0532V78H359.399ZM368.461 76.5146L369.692 76.7212C369.534 77.1724 369.283 77.5166 368.94 77.7539C368.6 77.9883 368.174 78.1055 367.662 78.1055C366.85 78.1055 366.249 77.8403 365.86 77.3101C365.552 76.8853 365.398 76.3491 365.398 75.7017C365.398 74.9282 365.6 74.3232 366.005 73.8867C366.409 73.4473 366.92 73.2275 367.538 73.2275C368.233 73.2275 368.781 73.4575 369.182 73.9175C369.583 74.3745 369.775 75.0762 369.758 76.0225H366.664C366.673 76.3887 366.772 76.6743 366.963 76.8794C367.153 77.0815 367.391 77.1826 367.675 77.1826C367.868 77.1826 368.031 77.1299 368.162 77.0244C368.294 76.9189 368.394 76.749 368.461 76.5146ZM368.532 75.2666C368.523 74.9092 368.431 74.6382 368.255 74.4536C368.079 74.2661 367.865 74.1724 367.613 74.1724C367.344 74.1724 367.121 74.2705 366.945 74.4668C366.769 74.6631 366.683 74.9297 366.686 75.2666H368.532ZM370.066 73.333H371.38L372.496 76.6465L373.586 73.333H374.865L373.217 77.8242L372.922 78.6372C372.814 78.9097 372.71 79.1177 372.61 79.2612C372.514 79.4048 372.401 79.5205 372.272 79.6084C372.146 79.6992 371.989 79.7695 371.802 79.8193C371.617 79.8691 371.408 79.894 371.173 79.894C370.936 79.894 370.703 79.8691 370.475 79.8193L370.365 78.8525C370.558 78.8906 370.732 78.9097 370.888 78.9097C371.175 78.9097 371.387 78.8247 371.525 78.6548C371.663 78.4878 371.768 78.2739 371.841 78.0132L370.066 73.333ZM327.829 87.9038L329.094 87.7808C329.17 88.2056 329.324 88.5176 329.556 88.7168C329.79 88.916 330.105 89.0156 330.501 89.0156C330.919 89.0156 331.234 88.9277 331.445 88.752C331.659 88.5732 331.766 88.3652 331.766 88.1279C331.766 87.9756 331.721 87.8467 331.63 87.7412C331.542 87.6328 331.387 87.5391 331.164 87.46C331.012 87.4072 330.665 87.3135 330.123 87.1787C329.425 87.0059 328.936 86.7935 328.655 86.5415C328.259 86.187 328.062 85.7549 328.062 85.2451C328.062 84.917 328.154 84.6108 328.338 84.3267C328.526 84.0396 328.794 83.8213 329.143 83.6719C329.494 83.5225 329.918 83.4478 330.413 83.4478C331.221 83.4478 331.829 83.625 332.236 83.9795C332.647 84.334 332.862 84.8071 332.882 85.3989L331.582 85.4561C331.526 85.125 331.406 84.8877 331.221 84.7441C331.04 84.5977 330.766 84.5244 330.399 84.5244C330.022 84.5244 329.726 84.6021 329.512 84.7573C329.374 84.8569 329.305 84.9902 329.305 85.1572C329.305 85.3096 329.37 85.4399 329.499 85.5483C329.663 85.686 330.061 85.8296 330.694 85.979C331.327 86.1284 331.794 86.2837 332.096 86.4448C332.4 86.603 332.638 86.8213 332.808 87.0996C332.981 87.375 333.067 87.7163 333.067 88.1235C333.067 88.4927 332.964 88.8384 332.759 89.1606C332.554 89.4829 332.264 89.7231 331.889 89.8813C331.514 90.0366 331.047 90.1143 330.487 90.1143C329.673 90.1143 329.047 89.9268 328.611 89.5518C328.174 89.1738 327.914 88.6245 327.829 87.9038ZM336.737 88.5146L337.967 88.7212C337.809 89.1724 337.559 89.5166 337.216 89.7539C336.876 89.9883 336.45 90.1055 335.937 90.1055C335.126 90.1055 334.525 89.8403 334.135 89.3101C333.828 88.8853 333.674 88.3491 333.674 87.7017C333.674 86.9282 333.876 86.3232 334.28 85.8867C334.685 85.4473 335.196 85.2275 335.814 85.2275C336.509 85.2275 337.056 85.4575 337.458 85.9175C337.859 86.3745 338.051 87.0762 338.033 88.0225H334.94C334.948 88.3887 335.048 88.6743 335.238 88.8794C335.429 89.0815 335.666 89.1826 335.95 89.1826C336.144 89.1826 336.306 89.1299 336.438 89.0244C336.57 88.9189 336.67 88.749 336.737 88.5146ZM336.807 87.2666C336.799 86.9092 336.706 86.6382 336.53 86.4536C336.355 86.2661 336.141 86.1724 335.889 86.1724C335.619 86.1724 335.397 86.2705 335.221 86.4668C335.045 86.6631 334.959 86.9297 334.962 87.2666H336.807ZM342.995 86.7129L341.778 86.9326C341.737 86.6895 341.643 86.5063 341.497 86.3833C341.353 86.2603 341.166 86.1987 340.934 86.1987C340.627 86.1987 340.381 86.3057 340.196 86.5195C340.015 86.7305 339.924 87.085 339.924 87.583C339.924 88.1367 340.016 88.5278 340.201 88.7563C340.388 88.9849 340.639 89.0991 340.952 89.0991C341.186 89.0991 341.378 89.0332 341.528 88.9014C341.677 88.7666 341.783 88.5366 341.844 88.2114L343.057 88.418C342.931 88.9746 342.689 89.395 342.332 89.6792C341.974 89.9634 341.495 90.1055 340.895 90.1055C340.212 90.1055 339.667 89.8901 339.26 89.4595C338.856 89.0288 338.654 88.4326 338.654 87.6709C338.654 86.9004 338.857 86.3013 339.265 85.8735C339.672 85.4429 340.223 85.2275 340.917 85.2275C341.485 85.2275 341.936 85.3506 342.27 85.5967C342.607 85.8398 342.849 86.2119 342.995 86.7129ZM345 90H343.765V85.333H344.912V85.9966C345.108 85.6831 345.284 85.4766 345.439 85.377C345.598 85.2773 345.776 85.2275 345.976 85.2275C346.257 85.2275 346.528 85.3052 346.789 85.4604L346.406 86.5371C346.198 86.4023 346.005 86.335 345.826 86.335C345.653 86.335 345.507 86.3833 345.387 86.48C345.267 86.5737 345.171 86.7451 345.101 86.9941C345.034 87.2432 345 87.7646 345 88.5586V90ZM349.909 88.5146L351.14 88.7212C350.982 89.1724 350.731 89.5166 350.388 89.7539C350.049 89.9883 349.622 90.1055 349.11 90.1055C348.298 90.1055 347.697 89.8403 347.308 89.3101C347 88.8853 346.846 88.3491 346.846 87.7017C346.846 86.9282 347.049 86.3232 347.453 85.8867C347.857 85.4473 348.368 85.2275 348.987 85.2275C349.681 85.2275 350.229 85.4575 350.63 85.9175C351.031 86.3745 351.223 87.0762 351.206 88.0225H348.112C348.121 88.3887 348.22 88.6743 348.411 88.8794C348.601 89.0815 348.839 89.1826 349.123 89.1826C349.316 89.1826 349.479 89.1299 349.611 89.0244C349.742 88.9189 349.842 88.749 349.909 88.5146ZM349.98 87.2666C349.971 86.9092 349.879 86.6382 349.703 86.4536C349.527 86.2661 349.313 86.1724 349.061 86.1724C348.792 86.1724 348.569 86.2705 348.393 86.4668C348.217 86.6631 348.131 86.9297 348.134 87.2666H349.98ZM354.239 85.333V86.3174H353.395V88.1982C353.395 88.5791 353.402 88.8018 353.417 88.8662C353.434 88.9277 353.471 88.979 353.527 89.02C353.585 89.061 353.656 89.0815 353.738 89.0815C353.852 89.0815 354.017 89.042 354.234 88.9629L354.34 89.9209C354.053 90.0439 353.727 90.1055 353.364 90.1055C353.141 90.1055 352.941 90.0688 352.762 89.9956C352.583 89.9194 352.452 89.8228 352.367 89.7056C352.285 89.5854 352.227 89.4243 352.195 89.2222C352.169 89.0786 352.156 88.7886 352.156 88.3521V86.3174H351.589V85.333H352.156V84.4058L353.395 83.6851V85.333H354.239ZM357.391 90V83.5576H358.692V86.4185L361.32 83.5576H363.069L360.643 86.0669L363.2 90H361.517L359.746 86.9766L358.692 88.0532V90H357.391ZM366.453 88.5146L367.683 88.7212C367.525 89.1724 367.275 89.5166 366.932 89.7539C366.592 89.9883 366.166 90.1055 365.653 90.1055C364.842 90.1055 364.241 89.8403 363.851 89.3101C363.544 88.8853 363.39 88.3491 363.39 87.7017C363.39 86.9282 363.592 86.3232 363.996 85.8867C364.401 85.4473 364.912 85.2275 365.53 85.2275C366.224 85.2275 366.772 85.4575 367.174 85.9175C367.575 86.3745 367.767 87.0762 367.749 88.0225H364.656C364.664 88.3887 364.764 88.6743 364.954 88.8794C365.145 89.0815 365.382 89.1826 365.666 89.1826C365.86 89.1826 366.022 89.1299 366.154 89.0244C366.286 88.9189 366.386 88.749 366.453 88.5146ZM366.523 87.2666C366.515 86.9092 366.422 86.6382 366.246 86.4536C366.071 86.2661 365.857 86.1724 365.605 86.1724C365.335 86.1724 365.113 86.2705 364.937 86.4668C364.761 86.6631 364.675 86.9297 364.678 87.2666H366.523ZM368.058 85.333H369.372L370.488 88.6465L371.578 85.333H372.856L371.209 89.8242L370.914 90.6372C370.806 90.9097 370.702 91.1177 370.602 91.2612C370.505 91.4048 370.393 91.5205 370.264 91.6084C370.138 91.6992 369.981 91.7695 369.794 91.8193C369.609 91.8691 369.399 91.894 369.165 91.894C368.928 91.894 368.695 91.8691 368.466 91.8193L368.356 90.8525C368.55 90.8906 368.724 90.9097 368.879 90.9097C369.167 90.9097 369.379 90.8247 369.517 90.6548C369.654 90.4878 369.76 90.2739 369.833 90.0132L368.058 85.333Z" fill="#1D1F25"/>
<path d="M457.931 294H456.516L455.954 292.537H453.379L452.847 294H451.467L453.976 287.558H455.352L457.931 294ZM455.536 291.451L454.649 289.061L453.778 291.451H455.536ZM458.59 294V287.558H460.537L461.706 291.952L462.862 287.558H464.813V294H463.604V288.929L462.325 294H461.073L459.799 288.929V294H458.59ZM466.047 294V287.558H467.348V294H466.047Z" fill="#1D1F25"/>
<path d="M540.425 291.631L541.686 292.031C541.493 292.734 541.17 293.257 540.719 293.6C540.271 293.94 539.701 294.11 539.01 294.11C538.154 294.11 537.451 293.818 536.9 293.235C536.349 292.649 536.074 291.85 536.074 290.836C536.074 289.764 536.351 288.932 536.905 288.34C537.458 287.745 538.186 287.448 539.089 287.448C539.877 287.448 540.517 287.681 541.009 288.146C541.302 288.422 541.522 288.817 541.668 289.333L540.381 289.641C540.305 289.307 540.145 289.043 539.902 288.85C539.662 288.656 539.369 288.56 539.023 288.56C538.545 288.56 538.157 288.731 537.858 289.074C537.562 289.417 537.414 289.972 537.414 290.739C537.414 291.554 537.561 292.134 537.854 292.479C538.147 292.825 538.528 292.998 538.996 292.998C539.342 292.998 539.64 292.888 539.889 292.668C540.138 292.449 540.316 292.103 540.425 291.631ZM542.494 291.601C542.494 291.19 542.595 290.793 542.797 290.41C542.999 290.026 543.285 289.733 543.654 289.531C544.026 289.329 544.441 289.228 544.898 289.228C545.604 289.228 546.183 289.458 546.634 289.917C547.085 290.375 547.31 290.953 547.31 291.653C547.31 292.359 547.082 292.945 546.625 293.411C546.171 293.874 545.598 294.105 544.907 294.105C544.479 294.105 544.07 294.009 543.681 293.815C543.294 293.622 542.999 293.339 542.797 292.967C542.595 292.592 542.494 292.137 542.494 291.601ZM543.76 291.667C543.76 292.129 543.87 292.484 544.089 292.73C544.309 292.976 544.58 293.099 544.902 293.099C545.225 293.099 545.494 292.976 545.711 292.73C545.931 292.484 546.04 292.126 546.04 291.658C546.04 291.201 545.931 290.849 545.711 290.603C545.494 290.357 545.225 290.234 544.902 290.234C544.58 290.234 544.309 290.357 544.089 290.603C543.87 290.849 543.76 291.204 543.76 291.667ZM548.171 289.333H549.31V289.97C549.717 289.475 550.202 289.228 550.764 289.228C551.063 289.228 551.322 289.289 551.542 289.412C551.762 289.535 551.942 289.721 552.083 289.97C552.288 289.721 552.509 289.535 552.746 289.412C552.983 289.289 553.237 289.228 553.506 289.228C553.849 289.228 554.139 289.298 554.376 289.438C554.614 289.576 554.791 289.78 554.908 290.049C554.993 290.249 555.036 290.571 555.036 291.016V294H553.801V291.333C553.801 290.87 553.758 290.571 553.673 290.436C553.559 290.26 553.383 290.172 553.146 290.172C552.973 290.172 552.811 290.225 552.658 290.331C552.506 290.436 552.396 290.591 552.329 290.796C552.261 290.999 552.228 291.319 552.228 291.759V294H550.993V291.442C550.993 290.988 550.971 290.695 550.927 290.563C550.883 290.432 550.814 290.333 550.72 290.269C550.629 290.205 550.505 290.172 550.347 290.172C550.156 290.172 549.985 290.224 549.833 290.326C549.68 290.429 549.57 290.577 549.503 290.77C549.438 290.963 549.406 291.284 549.406 291.732V294H548.171V289.333ZM556.217 289.333H557.369V290.019C557.518 289.784 557.72 289.594 557.975 289.447C558.23 289.301 558.513 289.228 558.823 289.228C559.365 289.228 559.825 289.44 560.203 289.865C560.581 290.29 560.77 290.881 560.77 291.64C560.77 292.419 560.58 293.026 560.199 293.459C559.818 293.89 559.357 294.105 558.815 294.105C558.557 294.105 558.322 294.054 558.111 293.952C557.903 293.849 557.684 293.673 557.452 293.424V295.775H556.217V289.333ZM557.439 291.587C557.439 292.112 557.543 292.5 557.751 292.752C557.959 293.001 558.212 293.125 558.511 293.125C558.798 293.125 559.037 293.011 559.228 292.783C559.418 292.551 559.513 292.173 559.513 291.649C559.513 291.16 559.415 290.796 559.219 290.559C559.023 290.322 558.779 290.203 558.489 290.203C558.188 290.203 557.937 290.32 557.738 290.555C557.539 290.786 557.439 291.13 557.439 291.587ZM564.808 294V293.301C564.638 293.55 564.414 293.747 564.136 293.89C563.861 294.034 563.569 294.105 563.261 294.105C562.948 294.105 562.667 294.037 562.418 293.899C562.169 293.761 561.988 293.568 561.877 293.319C561.766 293.07 561.71 292.726 561.71 292.286V289.333H562.945V291.478C562.945 292.134 562.967 292.537 563.011 292.686C563.058 292.833 563.141 292.95 563.261 293.038C563.382 293.123 563.534 293.165 563.718 293.165C563.929 293.165 564.118 293.108 564.285 292.994C564.452 292.876 564.567 292.733 564.628 292.563C564.69 292.39 564.72 291.97 564.72 291.302V289.333H565.955V294H564.808ZM569.361 289.333V290.317H568.517V292.198C568.517 292.579 568.524 292.802 568.539 292.866C568.556 292.928 568.593 292.979 568.649 293.02C568.707 293.061 568.778 293.082 568.86 293.082C568.974 293.082 569.139 293.042 569.356 292.963L569.462 293.921C569.175 294.044 568.849 294.105 568.486 294.105C568.263 294.105 568.063 294.069 567.884 293.996C567.705 293.919 567.573 293.823 567.488 293.706C567.406 293.585 567.349 293.424 567.317 293.222C567.291 293.079 567.278 292.789 567.278 292.352V290.317H566.711V289.333H567.278V288.406L568.517 287.685V289.333H569.361ZM572.902 292.515L574.133 292.721C573.974 293.172 573.724 293.517 573.381 293.754C573.041 293.988 572.615 294.105 572.102 294.105C571.291 294.105 570.69 293.84 570.301 293.31C569.993 292.885 569.839 292.349 569.839 291.702C569.839 290.928 570.041 290.323 570.446 289.887C570.85 289.447 571.361 289.228 571.979 289.228C572.674 289.228 573.221 289.458 573.623 289.917C574.024 290.375 574.216 291.076 574.199 292.022H571.105C571.114 292.389 571.213 292.674 571.404 292.879C571.594 293.082 571.831 293.183 572.116 293.183C572.309 293.183 572.471 293.13 572.603 293.024C572.735 292.919 572.835 292.749 572.902 292.515ZM572.972 291.267C572.964 290.909 572.871 290.638 572.696 290.454C572.52 290.266 572.306 290.172 572.054 290.172C571.784 290.172 571.562 290.271 571.386 290.467C571.21 290.663 571.124 290.93 571.127 291.267H572.972Z" fill="#1D1F25"/>
<path d="M164.32 70H162.905L162.343 68.5366H159.768L159.236 70H157.856L160.365 63.5576H161.741L164.32 70ZM161.925 67.4512L161.038 65.0605L160.167 67.4512H161.925ZM168.06 70V69.3013C167.89 69.5503 167.666 69.7466 167.387 69.8901C167.112 70.0337 166.82 70.1055 166.513 70.1055C166.199 70.1055 165.918 70.0366 165.669 69.8989C165.42 69.7612 165.24 69.5679 165.128 69.3188C165.017 69.0698 164.961 68.7256 164.961 68.2861V65.333H166.196V67.4775C166.196 68.1338 166.218 68.5366 166.262 68.686C166.309 68.8325 166.393 68.9497 166.513 69.0376C166.633 69.1226 166.785 69.165 166.97 69.165C167.181 69.165 167.37 69.1079 167.537 68.9937C167.704 68.8765 167.818 68.7329 167.879 68.563C167.941 68.3901 167.972 67.9697 167.972 67.3018V65.333H169.207V70H168.06ZM172.612 65.333V66.3174H171.768V68.1982C171.768 68.5791 171.775 68.8018 171.79 68.8662C171.808 68.9277 171.844 68.979 171.9 69.02C171.959 69.061 172.029 69.0815 172.111 69.0815C172.225 69.0815 172.391 69.042 172.608 68.9629L172.713 69.9209C172.426 70.0439 172.101 70.1055 171.737 70.1055C171.515 70.1055 171.314 70.0688 171.135 69.9956C170.957 69.9194 170.825 69.8228 170.74 69.7056C170.658 69.5854 170.601 69.4243 170.568 69.2222C170.542 69.0786 170.529 68.7886 170.529 68.3521V66.3174H169.962V65.333H170.529V64.4058L171.768 63.6851V65.333H172.612ZM174.681 63.5576V65.9263C175.08 65.4604 175.556 65.2275 176.11 65.2275C176.394 65.2275 176.65 65.2803 176.879 65.3857C177.107 65.4912 177.278 65.626 177.393 65.79C177.51 65.9541 177.589 66.1357 177.63 66.335C177.674 66.5342 177.696 66.8433 177.696 67.2622V70H176.461V67.5347C176.461 67.0454 176.438 66.7349 176.391 66.603C176.344 66.4712 176.26 66.3672 176.14 66.291C176.023 66.2119 175.875 66.1724 175.696 66.1724C175.491 66.1724 175.308 66.2222 175.147 66.3218C174.986 66.4214 174.867 66.5723 174.791 66.7744C174.718 66.9736 174.681 67.2695 174.681 67.6621V70H173.446V63.5576H174.681ZM181.637 68.5146L182.868 68.7212C182.71 69.1724 182.459 69.5166 182.116 69.7539C181.777 69.9883 181.35 70.1055 180.838 70.1055C180.026 70.1055 179.426 69.8403 179.036 69.3101C178.728 68.8853 178.574 68.3491 178.574 67.7017C178.574 66.9282 178.777 66.3232 179.181 65.8867C179.585 65.4473 180.096 65.2275 180.715 65.2275C181.409 65.2275 181.957 65.4575 182.358 65.9175C182.76 66.3745 182.951 67.0762 182.934 68.0225H179.84C179.849 68.3887 179.948 68.6743 180.139 68.8794C180.329 69.0815 180.567 69.1826 180.851 69.1826C181.044 69.1826 181.207 69.1299 181.339 69.0244C181.47 68.9189 181.57 68.749 181.637 68.5146ZM181.708 67.2666C181.699 66.9092 181.607 66.6382 181.431 66.4536C181.255 66.2661 181.041 66.1724 180.789 66.1724C180.52 66.1724 180.297 66.2705 180.121 66.4668C179.946 66.6631 179.859 66.9297 179.862 67.2666H181.708ZM188.172 70H186.937V67.6182C186.937 67.1143 186.91 66.7891 186.858 66.6426C186.805 66.4932 186.719 66.3774 186.598 66.2954C186.481 66.2134 186.339 66.1724 186.172 66.1724C185.958 66.1724 185.766 66.231 185.596 66.3481C185.427 66.4653 185.309 66.6206 185.245 66.814C185.183 67.0073 185.153 67.3647 185.153 67.8862V70H183.918V65.333H185.065V66.0186C185.472 65.4912 185.985 65.2275 186.603 65.2275C186.875 65.2275 187.124 65.2773 187.35 65.377C187.576 65.4736 187.745 65.5981 187.86 65.7505C187.977 65.9028 188.057 66.0757 188.101 66.269C188.148 66.4624 188.172 66.7393 188.172 67.0996V70ZM191.551 65.333V66.3174H190.707V68.1982C190.707 68.5791 190.714 68.8018 190.729 68.8662C190.746 68.9277 190.783 68.979 190.839 69.02C190.897 69.061 190.968 69.0815 191.05 69.0815C191.164 69.0815 191.329 69.042 191.546 68.9629L191.652 69.9209C191.365 70.0439 191.039 70.1055 190.676 70.1055C190.453 70.1055 190.253 70.0688 190.074 69.9956C189.895 69.9194 189.764 69.8228 189.679 69.7056C189.597 69.5854 189.539 69.4243 189.507 69.2222C189.481 69.0786 189.468 68.7886 189.468 68.3521V66.3174H188.901V65.333H189.468V64.4058L190.707 63.6851V65.333H191.551ZM192.39 64.7002V63.5576H193.624V64.7002H192.39ZM192.39 70V65.333H193.624V70H192.39ZM198.946 66.7129L197.729 66.9326C197.688 66.6895 197.594 66.5063 197.447 66.3833C197.304 66.2603 197.116 66.1987 196.885 66.1987C196.577 66.1987 196.331 66.3057 196.146 66.5195C195.965 66.7305 195.874 67.085 195.874 67.583C195.874 68.1367 195.966 68.5278 196.151 68.7563C196.338 68.9849 196.589 69.0991 196.902 69.0991C197.137 69.0991 197.329 69.0332 197.478 68.9014C197.627 68.7666 197.733 68.5366 197.794 68.2114L199.007 68.418C198.881 68.9746 198.64 69.395 198.282 69.6792C197.925 69.9634 197.446 70.1055 196.845 70.1055C196.163 70.1055 195.618 69.8901 195.21 69.4595C194.806 69.0288 194.604 68.4326 194.604 67.6709C194.604 66.9004 194.808 66.3013 195.215 65.8735C195.622 65.4429 196.173 65.2275 196.867 65.2275C197.436 65.2275 197.887 65.3506 198.221 65.5967C198.558 65.8398 198.799 66.2119 198.946 66.7129ZM200.791 66.7568L199.67 66.5547C199.796 66.1035 200.013 65.7695 200.321 65.5527C200.628 65.3359 201.086 65.2275 201.692 65.2275C202.243 65.2275 202.653 65.2935 202.922 65.4253C203.192 65.5542 203.381 65.7197 203.489 65.9219C203.601 66.1211 203.656 66.4888 203.656 67.0249L203.643 68.4663C203.643 68.8765 203.662 69.1797 203.7 69.376C203.741 69.5693 203.816 69.7773 203.924 70H202.703C202.67 69.918 202.631 69.7964 202.584 69.6353C202.564 69.562 202.549 69.5137 202.54 69.4902C202.329 69.6953 202.104 69.8491 201.863 69.9517C201.623 70.0542 201.367 70.1055 201.094 70.1055C200.614 70.1055 200.234 69.9751 199.956 69.7144C199.681 69.4536 199.543 69.124 199.543 68.7256C199.543 68.4619 199.606 68.2275 199.732 68.0225C199.858 67.8145 200.034 67.6562 200.259 67.5479C200.488 67.4365 200.816 67.3398 201.244 67.2578C201.821 67.1494 202.221 67.0483 202.443 66.9546V66.8315C202.443 66.5942 202.385 66.4258 202.268 66.3262C202.15 66.2236 201.929 66.1724 201.604 66.1724C201.384 66.1724 201.213 66.2163 201.09 66.3042C200.967 66.3892 200.867 66.54 200.791 66.7568ZM202.443 67.7588C202.285 67.8115 202.035 67.8745 201.692 67.9478C201.349 68.021 201.125 68.0928 201.02 68.1631C200.858 68.2773 200.778 68.4224 200.778 68.5981C200.778 68.771 200.842 68.9204 200.971 69.0464C201.1 69.1724 201.264 69.2354 201.463 69.2354C201.686 69.2354 201.899 69.1621 202.101 69.0156C202.25 68.9043 202.348 68.7681 202.395 68.6069C202.427 68.5015 202.443 68.3008 202.443 68.0049V67.7588ZM207 65.333V66.3174H206.156V68.1982C206.156 68.5791 206.164 68.8018 206.178 68.8662C206.196 68.9277 206.233 68.979 206.288 69.02C206.347 69.061 206.417 69.0815 206.499 69.0815C206.613 69.0815 206.779 69.042 206.996 68.9629L207.101 69.9209C206.814 70.0439 206.489 70.1055 206.126 70.1055C205.903 70.1055 205.702 70.0688 205.524 69.9956C205.345 69.9194 205.213 69.8228 205.128 69.7056C205.046 69.5854 204.989 69.4243 204.957 69.2222C204.93 69.0786 204.917 68.7886 204.917 68.3521V66.3174H204.35V65.333H204.917V64.4058L206.156 63.6851V65.333H207ZM207.839 64.7002V63.5576H209.074V64.7002H207.839ZM207.839 70V65.333H209.074V70H207.839ZM210.04 67.6006C210.04 67.1904 210.141 66.7935 210.344 66.4097C210.546 66.0259 210.831 65.7329 211.2 65.5308C211.573 65.3286 211.987 65.2275 212.444 65.2275C213.15 65.2275 213.729 65.4575 214.18 65.9175C214.631 66.3745 214.857 66.9531 214.857 67.6533C214.857 68.3594 214.628 68.9453 214.171 69.4111C213.717 69.874 213.144 70.1055 212.453 70.1055C212.025 70.1055 211.616 70.0088 211.227 69.8154C210.84 69.6221 210.546 69.3394 210.344 68.9673C210.141 68.5923 210.04 68.1367 210.04 67.6006ZM211.306 67.6665C211.306 68.1294 211.416 68.4839 211.636 68.73C211.855 68.9761 212.126 69.0991 212.449 69.0991C212.771 69.0991 213.04 68.9761 213.257 68.73C213.477 68.4839 213.587 68.1265 213.587 67.6577C213.587 67.2007 213.477 66.8491 213.257 66.603C213.04 66.3569 212.771 66.2339 212.449 66.2339C212.126 66.2339 211.855 66.3569 211.636 66.603C211.416 66.8491 211.306 67.2036 211.306 67.6665ZM220.055 70H218.82V67.6182C218.82 67.1143 218.794 66.7891 218.741 66.6426C218.688 66.4932 218.602 66.3774 218.482 66.2954C218.365 66.2134 218.223 66.1724 218.056 66.1724C217.842 66.1724 217.65 66.231 217.48 66.3481C217.31 66.4653 217.193 66.6206 217.128 66.814C217.067 67.0073 217.036 67.3647 217.036 67.8862V70H215.801V65.333H216.948V66.0186C217.355 65.4912 217.868 65.2275 218.486 65.2275C218.759 65.2275 219.008 65.2773 219.233 65.377C219.459 65.4736 219.629 65.5981 219.743 65.7505C219.86 65.9028 219.941 66.0757 219.985 66.269C220.032 66.4624 220.055 66.7393 220.055 67.0996V70Z" fill="#1D1F25"/>
<path d="M179.726 228V222.647H177.814V221.558H182.934V222.647H181.026V228H179.726ZM182.797 225.601C182.797 225.19 182.898 224.793 183.1 224.41C183.302 224.026 183.588 223.733 183.957 223.531C184.329 223.329 184.744 223.228 185.201 223.228C185.907 223.228 186.485 223.458 186.937 223.917C187.388 224.375 187.613 224.953 187.613 225.653C187.613 226.359 187.385 226.945 186.928 227.411C186.474 227.874 185.901 228.105 185.21 228.105C184.782 228.105 184.373 228.009 183.983 227.815C183.597 227.622 183.302 227.339 183.1 226.967C182.898 226.592 182.797 226.137 182.797 225.601ZM184.063 225.667C184.063 226.129 184.172 226.484 184.392 226.73C184.612 226.976 184.883 227.099 185.205 227.099C185.527 227.099 185.797 226.976 186.014 226.73C186.233 226.484 186.343 226.126 186.343 225.658C186.343 225.201 186.233 224.849 186.014 224.603C185.797 224.357 185.527 224.234 185.205 224.234C184.883 224.234 184.612 224.357 184.392 224.603C184.172 224.849 184.063 225.204 184.063 225.667ZM188.281 225.601C188.281 225.19 188.382 224.793 188.584 224.41C188.786 224.026 189.072 223.733 189.441 223.531C189.813 223.329 190.228 223.228 190.685 223.228C191.391 223.228 191.969 223.458 192.421 223.917C192.872 224.375 193.097 224.953 193.097 225.653C193.097 226.359 192.869 226.945 192.412 227.411C191.958 227.874 191.385 228.105 190.694 228.105C190.266 228.105 189.857 228.009 189.467 227.815C189.081 227.622 188.786 227.339 188.584 226.967C188.382 226.592 188.281 226.137 188.281 225.601ZM189.547 225.667C189.547 226.129 189.656 226.484 189.876 226.73C190.096 226.976 190.367 227.099 190.689 227.099C191.011 227.099 191.281 226.976 191.498 226.73C191.717 226.484 191.827 226.126 191.827 225.658C191.827 225.201 191.717 224.849 191.498 224.603C191.281 224.357 191.011 224.234 190.689 224.234C190.367 224.234 190.096 224.357 189.876 224.603C189.656 224.849 189.547 225.204 189.547 225.667ZM194.051 228V221.558H195.285V228H194.051ZM196.102 226.668L197.342 226.479C197.394 226.72 197.501 226.903 197.662 227.029C197.824 227.152 198.049 227.213 198.339 227.213C198.659 227.213 198.899 227.155 199.06 227.038C199.168 226.956 199.222 226.846 199.222 226.708C199.222 226.614 199.193 226.537 199.135 226.475C199.073 226.417 198.935 226.362 198.721 226.312C197.725 226.093 197.094 225.892 196.827 225.71C196.458 225.458 196.274 225.108 196.274 224.66C196.274 224.256 196.433 223.916 196.753 223.641C197.072 223.365 197.567 223.228 198.238 223.228C198.877 223.228 199.351 223.332 199.662 223.54C199.972 223.748 200.186 224.055 200.304 224.462L199.139 224.678C199.089 224.496 198.994 224.357 198.853 224.26C198.716 224.164 198.518 224.115 198.26 224.115C197.935 224.115 197.702 224.161 197.561 224.251C197.468 224.316 197.421 224.399 197.421 224.502C197.421 224.59 197.462 224.665 197.544 224.726C197.655 224.808 198.039 224.924 198.695 225.073C199.354 225.223 199.814 225.406 200.075 225.623C200.333 225.842 200.462 226.148 200.462 226.541C200.462 226.969 200.283 227.336 199.926 227.644C199.568 227.952 199.039 228.105 198.339 228.105C197.703 228.105 197.2 227.977 196.827 227.719C196.458 227.461 196.217 227.111 196.102 226.668Z" fill="#1D1F25"/>
<path fill-rule="evenodd" clip-rule="evenodd" d="M551.568 104.928L552.973 106.333L546.018 113.288C545.825 113.481 545.57 113.579 545.316 113.579C545.061 113.579 544.807 113.481 544.613 113.288L541.135 109.81L542.54 108.405L545.316 111.18L551.568 104.928ZM551.568 93.6256L552.973 95.0308L546.018 101.985C545.825 102.179 545.57 102.277 545.316 102.277C545.061 102.277 544.807 102.179 544.613 101.985L541.135 98.5081L542.54 97.1029L545.316 99.8775L551.568 93.6256ZM551.235 119.374L548.026 122.584L551.235 125.793L549.83 127.198L546.62 123.989L543.41 127.198L542.004 125.793L545.214 122.584L542.004 119.374L543.41 117.968L546.62 121.178L549.83 117.968L551.235 119.374ZM570.403 129.918C570.403 130.359 570.044 130.718 569.603 130.718H540.155C539.713 130.718 539.354 130.359 539.354 129.918V91.7762C539.354 91.3339 539.713 90.9752 540.155 90.9752H569.603C570.044 90.9752 570.403 91.3339 570.403 91.7762V129.918ZM569.603 88.9876H540.155C538.618 88.9876 537.366 90.2388 537.366 91.7762V129.918C537.366 131.454 538.618 132.705 540.155 132.705H569.603C571.14 132.705 572.391 131.454 572.391 129.918V91.7762C572.391 90.2388 571.14 88.9876 569.603 88.9876V88.9876Z" fill="#BF0816"/>
<rect x="540.404" y="240" width="35.7764" height="35.7764" fill="url(#paint2_linear_3_1140)"/>
<path fill-rule="evenodd" clip-rule="evenodd" d="M563.705 264.149L563.658 252.475L552.031 252.522V264.196L563.705 264.149ZM564.553 252.522H566.342V253.416H564.553V255.205H566.342V256.099H564.553V257.888H566.342V258.783H564.553V260.571H566.342V261.466H564.553V263.255H566.342V264.149H564.553V264.196C564.553 264.663 564.172 265.043 563.705 265.043H563.658V266.832H562.764V265.043H560.975V266.832H560.081V265.043H558.292V266.832H557.397V265.043H555.609V266.832H554.714V265.043H552.925V266.832H552.031V265.043H551.985C551.518 265.043 551.137 264.663 551.137 264.196V264.149H549.348V263.255H551.137V261.466H549.348V260.571H551.137V258.783H549.348V257.888H551.137V256.099H549.348V255.205H551.137V253.416H549.348V252.522H551.137V252.475C551.137 252.007 551.518 251.627 551.985 251.627H552.031V249.839H552.925V251.627H554.714V249.839H555.609V251.627H557.397V249.839H558.292V251.627H560.081V249.839H560.975V251.627H562.764V249.839H563.658V251.627H563.705C564.172 251.627 564.553 252.007 564.553 252.475V252.522ZM559.186 269.516H546.665V256.994H548.453V256.099H546.72C546.197 256.099 545.77 256.526 545.77 257.049V269.46C545.77 269.983 546.197 270.41 546.72 270.41H559.132C559.655 270.41 560.081 269.983 560.081 269.46V267.727H559.186V269.516ZM570.814 246.316V258.727C570.814 259.25 570.388 259.677 569.865 259.677H567.236V258.783H569.919V246.261H557.397V248.944H556.503V246.316C556.503 245.793 556.93 245.366 557.453 245.366H569.865C570.388 245.366 570.814 245.793 570.814 246.316V246.316Z" fill="white"/>
<rect x="445" y="240" width="35.7764" height="35.7764" fill="url(#paint3_linear_3_1140)"/>
<path fill-rule="evenodd" clip-rule="evenodd" d="M458.485 254.645L455.064 258.046L458.485 261.442L459.113 260.818L456.32 258.046L459.113 255.269L458.485 254.645ZM451.254 268.633H461.906V247.458H451.254V268.633ZM450.366 269.516H462.794V246.576H450.366V269.516ZM451.824 257.605C451.824 262.621 455.93 266.703 460.978 266.703V265.82C456.42 265.82 452.712 262.134 452.712 257.605C452.712 253.074 456.42 249.389 460.978 249.389V248.506C455.93 248.506 451.824 252.587 451.824 257.605V257.605ZM464.195 262.25V263.132C467.228 263.132 469.693 260.68 469.693 257.667C469.693 254.653 467.228 252.201 464.195 252.201V253.084C466.738 253.084 468.806 255.14 468.806 257.667C468.806 260.194 466.738 262.25 464.195 262.25V262.25ZM475.41 255.84V259.495C475.41 259.99 475.005 260.393 474.507 260.393H472.934C472.758 260.97 472.523 261.53 472.237 262.065L473.35 263.171C473.702 263.521 473.702 264.09 473.35 264.441L470.749 267.026C470.397 267.375 469.823 267.375 469.472 267.026L468.357 265.918C467.82 266.204 467.257 266.437 466.677 266.613V268.175C466.677 268.671 466.272 269.074 465.774 269.074H463.935V268.192H465.774L465.79 265.94L466.12 265.853C466.849 265.661 467.553 265.371 468.211 264.99L468.507 264.819L470.099 266.402L472.722 263.817L471.13 262.213L471.301 261.919C471.684 261.264 471.977 260.565 472.171 259.839L472.259 259.51H474.507L474.522 255.84L472.259 255.823L472.171 255.496C471.977 254.77 471.684 254.07 471.301 253.415L471.13 253.122L472.722 251.54L470.121 248.932L468.507 250.515L468.211 250.344C467.553 249.963 466.849 249.673 466.12 249.48L465.79 249.394V247.158L463.972 247.143V246.261H465.774C466.272 246.261 466.677 246.663 466.677 247.158V248.722C467.257 248.897 467.82 249.13 468.358 249.415L469.472 248.309C469.823 247.959 470.397 247.958 470.749 248.309L473.35 250.894C473.702 251.244 473.702 251.814 473.35 252.163L472.237 253.27C472.523 253.805 472.758 254.365 472.934 254.941H474.507C475.005 254.941 475.41 255.344 475.41 255.84V255.84Z" fill="white"/>
<path d="M510.1 195.625L512.88 190.565L507.108 190.687L510.1 195.625ZM509.1 172.011L509.505 191.137L510.505 191.115L510.1 171.989L509.1 172.011Z" fill="#666666"/>
<path d="M461.807 308L458.921 313H464.694L461.807 308ZM149.506 308V310.031H150.506V308H149.506ZM149.506 314.094V318.157H150.506V314.094H149.506ZM149.506 322.22V326.283H150.506V322.22H149.506ZM149.506 330.346V334.409H150.506V330.346H149.506ZM149.506 338.472V342.535H150.506V338.472H149.506ZM149.506 346.597V350.66H150.506V346.597H149.506ZM149.506 354.723V358.786H150.506V354.723H149.506ZM149.506 362.849V366.912H150.506V362.849H149.506ZM149.506 370.975V373.006H150.506V370.975H149.506ZM149.506 373.006C149.506 373.751 149.655 374.462 149.924 375.112L150.847 374.729C150.628 374.199 150.506 373.617 150.506 373.006H149.506ZM152.901 378.089C153.55 378.358 154.261 378.506 155.006 378.506V377.506C154.395 377.506 153.814 377.385 153.284 377.165L152.901 378.089ZM155.006 378.506H156.992V377.506H155.006V378.506ZM160.963 378.506H164.934V377.506H160.963V378.506ZM168.905 378.506H172.876V377.506H168.905V378.506ZM176.847 378.506H180.818V377.506H176.847V378.506ZM184.789 378.506H188.76V377.506H184.789V378.506ZM192.731 378.506H196.702V377.506H192.731V378.506ZM200.674 378.506H204.645V377.506H200.674V378.506ZM208.616 378.506H212.587V377.506H208.616V378.506ZM216.558 378.506H220.529V377.506H216.558V378.506ZM224.5 378.506H228.471V377.506H224.5V378.506ZM232.442 378.506H236.413V377.506H232.442V378.506ZM240.384 378.506H244.355V377.506H240.384V378.506ZM248.326 378.506H252.297V377.506H248.326V378.506ZM256.268 378.506H260.24V377.506H256.268V378.506ZM264.211 378.506H268.182V377.506H264.211V378.506ZM272.153 378.506H276.124V377.506H272.153V378.506ZM280.095 378.506H284.066V377.506H280.095V378.506ZM288.037 378.506H292.008V377.506H288.037V378.506ZM295.979 378.506H299.95V377.506H295.979V378.506ZM303.921 378.506H307.892V377.506H303.921V378.506ZM311.863 378.506H315.835V377.506H311.863V378.506ZM319.806 378.506H323.777V377.506H319.806V378.506ZM327.748 378.506H331.719V377.506H327.748V378.506ZM335.69 378.506H339.661V377.506H335.69V378.506ZM343.632 378.506H347.603V377.506H343.632V378.506ZM351.574 378.506H355.545V377.506H351.574V378.506ZM359.516 378.506H363.487V377.506H359.516V378.506ZM367.458 378.506H371.429V377.506H367.458V378.506ZM375.401 378.506H379.372V377.506H375.401V378.506ZM383.343 378.506H387.314V377.506H383.343V378.506ZM391.285 378.506H395.256V377.506H391.285V378.506ZM399.227 378.506H403.198V377.506H399.227V378.506ZM407.169 378.506H411.14V377.506H407.169V378.506ZM415.111 378.506H419.082V377.506H415.111V378.506ZM423.053 378.506H427.024V377.506H423.053V378.506ZM430.996 378.506H434.967V377.506H430.996V378.506ZM438.938 378.506H442.909V377.506H438.938V378.506ZM446.88 378.506H450.851V377.506H446.88V378.506ZM454.822 378.506H456.807V377.506H454.822V378.506ZM456.807 378.506C457.552 378.506 458.264 378.358 458.913 378.089L458.53 377.165C458 377.385 457.419 377.506 456.807 377.506V378.506ZM461.89 375.112C462.159 374.462 462.307 373.751 462.307 373.006H461.307C461.307 373.617 461.186 374.199 460.966 374.729L461.89 375.112ZM462.307 373.006V370.975H461.307V373.006H462.307ZM462.307 366.912V362.849H461.307V366.912H462.307ZM462.307 358.786V354.723H461.307V358.786H462.307ZM462.307 350.66V346.597H461.307V350.66H462.307ZM462.307 342.535V338.472H461.307V342.535H462.307ZM462.307 334.409V330.346H461.307V334.409H462.307ZM462.307 326.283V322.22H461.307V326.283H462.307ZM462.307 318.157V314.094H461.307V318.157H462.307Z" fill="#02A8EF"/>
<path d="M556.217 309L553.331 314H559.104L556.217 309ZM229.009 309V311.07H230.009V309H229.009ZM229.009 315.209V319.348H230.009V315.209H229.009ZM229.009 323.487V327.626H230.009V323.487H229.009ZM229.009 331.765V335.904H230.009V331.765H229.009ZM229.009 340.043V344.182H230.009V340.043H229.009ZM229.009 348.321V352.46H230.009V348.321H229.009ZM229.009 356.599V360.738H230.009V356.599H229.009ZM229.009 364.877V369.016H230.009V364.877H229.009ZM229.009 373.155V377.295H230.009V373.155H229.009ZM229.009 381.434V383.503H230.009V381.434H229.009ZM229.009 383.503C229.009 384.248 229.158 384.959 229.427 385.609L230.351 385.226C230.131 384.696 230.009 384.114 230.009 383.503H229.009ZM232.404 388.586C233.053 388.855 233.765 389.003 234.509 389.003V388.003C233.898 388.003 233.317 387.882 232.787 387.662L232.404 388.586ZM234.509 389.003H236.489V388.003H234.509V389.003ZM240.448 389.003H244.406V388.003H240.448V389.003ZM248.365 389.003H252.324V388.003H248.365V389.003ZM256.283 389.003H260.242V388.003H256.283V389.003ZM264.201 389.003H268.16V388.003H264.201V389.003ZM272.118 389.003H276.077V388.003H272.118V389.003ZM280.036 389.003H283.995V388.003H280.036V389.003ZM287.954 389.003H291.913V388.003H287.954V389.003ZM295.872 389.003H299.83V388.003H295.872V389.003ZM303.789 389.003H307.748V388.003H303.789V389.003ZM311.707 389.003H315.666V388.003H311.707V389.003ZM319.625 389.003H323.583V388.003H319.625V389.003ZM327.542 389.003H331.501V388.003H327.542V389.003ZM335.46 389.003H339.419V388.003H335.46V389.003ZM343.378 389.003H347.337V388.003H343.378V389.003ZM351.295 389.003H355.254V388.003H351.295V389.003ZM359.213 389.003H363.172V388.003H359.213V389.003ZM367.131 389.003H371.09V388.003H367.131V389.003ZM375.048 389.003H379.007V388.003H375.048V389.003ZM382.966 389.003H386.925V388.003H382.966V389.003ZM390.884 389.003H394.843V388.003H390.884V389.003ZM398.802 389.003H402.76V388.003H398.802V389.003ZM406.719 389.003H410.678V388.003H406.719V389.003ZM414.637 389.003H418.596V388.003H414.637V389.003ZM422.555 389.003H426.513V388.003H422.555V389.003ZM430.472 389.003H434.431V388.003H430.472V389.003ZM438.39 389.003H442.349V388.003H438.39V389.003ZM446.308 389.003H450.267V388.003H446.308V389.003ZM454.225 389.003H458.184V388.003H454.225V389.003ZM462.143 389.003H466.102V388.003H462.143V389.003ZM470.061 389.003H474.02V388.003H470.061V389.003ZM477.978 389.003H481.937V388.003H477.978V389.003ZM485.896 389.003H489.855V388.003H485.896V389.003ZM493.814 389.003H497.773V388.003H493.814V389.003ZM501.732 389.003H505.69V388.003H501.732V389.003ZM509.649 389.003H513.608V388.003H509.649V389.003ZM517.567 389.003H521.526V388.003H517.567V389.003ZM525.485 389.003H529.444V388.003H525.485V389.003ZM533.403 389.003H537.361V388.003H533.403V389.003ZM541.32 389.003H545.279V388.003H541.32V389.003ZM549.238 389.003H551.217V388.003H549.238V389.003ZM551.217 389.003C551.962 389.003 552.674 388.855 553.323 388.586L552.94 387.662C552.41 387.882 551.828 388.003 551.217 388.003V389.003ZM556.3 385.609C556.569 384.959 556.717 384.248 556.717 383.503H555.717C555.717 384.114 555.596 384.696 555.376 385.226L556.3 385.609ZM556.717 383.503V381.434H555.717V383.503H556.717ZM556.717 377.295V373.155H555.717V377.295H556.717ZM556.717 369.016V364.877H555.717V369.016H556.717ZM556.717 360.738V356.599H555.717V360.738H556.717ZM556.717 352.46V348.321H555.717V352.46H556.717ZM556.717 344.182V340.043H555.717V344.182H556.717ZM556.717 335.904V331.765H555.717V335.904H556.717ZM556.717 327.626V323.487H555.717V327.626H556.717ZM556.717 319.348V315.209H555.717V319.348H556.717Z" fill="#7B42BC"/>
<g clip-path="url(#clip1_3_1140)">
<rect x="369" y="382" width="47" height="14" fill="white"/>
<path d="M378.282 385.558H380.659C381.195 385.558 381.604 385.599 381.885 385.681C382.263 385.792 382.587 385.99 382.856 386.274C383.126 386.558 383.331 386.907 383.472 387.32C383.612 387.73 383.683 388.237 383.683 388.84C383.683 389.371 383.617 389.828 383.485 390.211C383.324 390.68 383.094 391.06 382.795 391.35C382.569 391.569 382.265 391.741 381.881 391.864C381.594 391.955 381.21 392 380.73 392H378.282V385.558ZM379.583 386.647V390.915H380.554C380.917 390.915 381.179 390.894 381.34 390.853C381.551 390.8 381.726 390.711 381.863 390.585C382.004 390.459 382.118 390.252 382.206 389.965C382.294 389.675 382.338 389.281 382.338 388.783C382.338 388.285 382.294 387.903 382.206 387.636C382.118 387.37 381.995 387.162 381.837 387.012C381.679 386.863 381.478 386.762 381.235 386.709C381.053 386.668 380.697 386.647 380.167 386.647H379.583ZM387.466 390.515L388.696 390.721C388.538 391.172 388.288 391.517 387.945 391.754C387.605 391.988 387.179 392.105 386.666 392.105C385.855 392.105 385.254 391.84 384.864 391.31C384.557 390.885 384.403 390.349 384.403 389.702C384.403 388.928 384.605 388.323 385.009 387.887C385.414 387.447 385.925 387.228 386.543 387.228C387.237 387.228 387.785 387.458 388.187 387.917C388.588 388.375 388.78 389.076 388.762 390.022H385.669C385.677 390.389 385.777 390.674 385.967 390.879C386.158 391.082 386.395 391.183 386.679 391.183C386.873 391.183 387.035 391.13 387.167 391.024C387.299 390.919 387.399 390.749 387.466 390.515ZM387.536 389.267C387.527 388.909 387.435 388.638 387.259 388.454C387.084 388.266 386.87 388.172 386.618 388.172C386.348 388.172 386.126 388.271 385.95 388.467C385.774 388.663 385.688 388.93 385.691 389.267H387.536ZM389.72 387.333H390.871V388.019C391.021 387.784 391.223 387.594 391.478 387.447C391.733 387.301 392.015 387.228 392.326 387.228C392.868 387.228 393.328 387.44 393.706 387.865C394.084 388.29 394.273 388.881 394.273 389.64C394.273 390.419 394.082 391.026 393.701 391.459C393.32 391.89 392.859 392.105 392.317 392.105C392.059 392.105 391.825 392.054 391.614 391.952C391.406 391.849 391.186 391.673 390.955 391.424V393.775H389.72V387.333ZM390.942 389.587C390.942 390.112 391.046 390.5 391.254 390.752C391.462 391.001 391.715 391.125 392.014 391.125C392.301 391.125 392.54 391.011 392.73 390.783C392.921 390.551 393.016 390.173 393.016 389.649C393.016 389.16 392.918 388.796 392.721 388.559C392.525 388.322 392.282 388.203 391.992 388.203C391.69 388.203 391.44 388.32 391.24 388.555C391.041 388.786 390.942 389.13 390.942 389.587ZM395.239 392V385.558H396.474V392H395.239ZM397.44 389.601C397.44 389.19 397.541 388.793 397.743 388.41C397.946 388.026 398.231 387.733 398.6 387.531C398.972 387.329 399.387 387.228 399.844 387.228C400.55 387.228 401.129 387.458 401.58 387.917C402.031 388.375 402.257 388.953 402.257 389.653C402.257 390.359 402.028 390.945 401.571 391.411C401.117 391.874 400.544 392.105 399.853 392.105C399.425 392.105 399.016 392.009 398.627 391.815C398.24 391.622 397.946 391.339 397.743 390.967C397.541 390.592 397.44 390.137 397.44 389.601ZM398.706 389.667C398.706 390.129 398.816 390.484 399.035 390.73C399.255 390.976 399.526 391.099 399.848 391.099C400.171 391.099 400.44 390.976 400.657 390.73C400.877 390.484 400.987 390.126 400.987 389.658C400.987 389.201 400.877 388.849 400.657 388.603C400.44 388.357 400.171 388.234 399.848 388.234C399.526 388.234 399.255 388.357 399.035 388.603C398.816 388.849 398.706 389.204 398.706 389.667ZM402.625 387.333H403.939L405.056 390.646L406.145 387.333H407.424L405.776 391.824L405.482 392.637C405.373 392.91 405.269 393.118 405.17 393.261C405.073 393.405 404.96 393.521 404.831 393.608C404.705 393.699 404.549 393.77 404.361 393.819C404.177 393.869 403.967 393.894 403.733 393.894C403.495 393.894 403.263 393.869 403.034 393.819L402.924 392.853C403.118 392.891 403.292 392.91 403.447 392.91C403.734 392.91 403.947 392.825 404.084 392.655C404.222 392.488 404.328 392.274 404.401 392.013L402.625 387.333Z" fill="#7B42BC"/>
</g>
<g clip-path="url(#clip2_3_1140)">
<rect x="282" y="371" width="47" height="16" fill="white"/>
<path d="M295.039 375.558H297.614C298.124 375.558 298.503 375.58 298.752 375.624C299.004 375.665 299.228 375.752 299.425 375.887C299.624 376.022 299.789 376.202 299.921 376.428C300.053 376.65 300.119 376.901 300.119 377.179C300.119 377.481 300.037 377.758 299.873 378.01C299.712 378.262 299.492 378.451 299.214 378.577C299.606 378.691 299.908 378.886 300.119 379.161C300.33 379.437 300.435 379.76 300.435 380.132C300.435 380.425 300.367 380.711 300.229 380.989C300.094 381.265 299.908 381.486 299.671 381.653C299.436 381.817 299.146 381.918 298.801 381.956C298.584 381.979 298.061 381.994 297.232 382H295.039V375.558ZM296.34 376.63V378.12H297.192C297.699 378.12 298.014 378.112 298.137 378.098C298.36 378.071 298.534 377.995 298.66 377.869C298.789 377.74 298.853 377.572 298.853 377.364C298.853 377.165 298.798 377.003 298.686 376.88C298.578 376.754 298.415 376.678 298.199 376.652C298.07 376.637 297.699 376.63 297.087 376.63H296.34ZM296.34 379.192V380.915H297.544C298.013 380.915 298.31 380.901 298.436 380.875C298.629 380.84 298.786 380.755 298.906 380.62C299.029 380.482 299.091 380.299 299.091 380.071C299.091 379.877 299.044 379.713 298.95 379.579C298.856 379.444 298.72 379.346 298.541 379.284C298.366 379.223 297.982 379.192 297.39 379.192H296.34ZM304.583 382V381.301C304.413 381.55 304.189 381.747 303.911 381.89C303.636 382.034 303.344 382.105 303.036 382.105C302.723 382.105 302.442 382.037 302.193 381.899C301.944 381.761 301.764 381.568 301.652 381.319C301.541 381.07 301.485 380.726 301.485 380.286V377.333H302.72V379.478C302.72 380.134 302.742 380.537 302.786 380.686C302.833 380.833 302.916 380.95 303.036 381.038C303.157 381.123 303.309 381.165 303.494 381.165C303.704 381.165 303.893 381.108 304.06 380.994C304.227 380.876 304.342 380.733 304.403 380.563C304.465 380.39 304.495 379.97 304.495 379.302V377.333H305.73V382H304.583ZM306.996 376.7V375.558H308.23V376.7H306.996ZM306.996 382V377.333H308.23V382H306.996ZM309.482 382V375.558H310.717V382H309.482ZM316.25 382H315.103V381.314C314.912 381.581 314.687 381.78 314.426 381.912C314.168 382.041 313.907 382.105 313.644 382.105C313.107 382.105 312.648 381.89 312.264 381.459C311.883 381.026 311.692 380.422 311.692 379.649C311.692 378.858 311.878 378.257 312.251 377.847C312.623 377.434 313.093 377.228 313.661 377.228C314.183 377.228 314.634 377.444 315.015 377.878V375.558H316.25V382ZM312.954 379.565C312.954 380.063 313.023 380.424 313.16 380.646C313.359 380.969 313.638 381.13 313.995 381.13C314.279 381.13 314.521 381.01 314.72 380.77C314.92 380.526 315.019 380.165 315.019 379.684C315.019 379.148 314.922 378.763 314.729 378.528C314.536 378.291 314.288 378.172 313.986 378.172C313.693 378.172 313.447 378.29 313.248 378.524C313.052 378.755 312.954 379.103 312.954 379.565Z" fill="#02A8EF"/>
</g>
<defs>
<linearGradient id="paint0_linear_3_1140" x1="80.0849" y1="61.2265" x2="80.0849" y2="355.012" gradientUnits="userSpaceOnUse">
<stop stop-color="white"/>
<stop offset="1" stop-color="#E5E7EB"/>
</linearGradient>
<linearGradient id="paint1_linear_3_1140" x1="134.354" y1="3742.26" x2="3612.61" y2="264" gradientUnits="userSpaceOnUse">
<stop stop-color="#2E27AD"/>
<stop offset="1" stop-color="#527FFF"/>
</linearGradient>
<linearGradient id="paint2_linear_3_1140" x1="558.292" y1="293.665" x2="594.068" y2="257.888" gradientUnits="userSpaceOnUse">
<stop stop-color="#C8511B"/>
<stop offset="1" stop-color="#FF9900"/>
</linearGradient>
<linearGradient id="paint3_linear_3_1140" x1="462.888" y1="293.665" x2="498.665" y2="257.888" gradientUnits="userSpaceOnUse">
<stop stop-color="#C8511B"/>
<stop offset="1" stop-color="#FF9900"/>
</linearGradient>
<clipPath id="clip0_3_1140">
<rect width="34.7826" height="34.7826" fill="white" transform="translate(134.354 264)"/>
</clipPath>
<clipPath id="clip1_3_1140">
<rect width="47.205" height="34.7826" fill="white" transform="translate(369 370)"/>
</clipPath>
<clipPath id="clip2_3_1140">
<rect width="47.205" height="33.5404" fill="white" transform="translate(282 361)"/>
</clipPath>
</defs>
</svg>
